<svg width="24" height="24" viewBox="0 0 24 24" fill="none" xmlns="http://www.w3.org/2000/svg">
<g clip-path="url(#clip0_497_3052)">
<path d="M2.5 11.5C2.5 16.7466 6.75328 20.9999 12 20.9999C17.2466 20.9999 21.4999 16.7466 21.4999 11.5C21.4999 6.25328 17.2466 2 12 2C6.75328 2 2.5 6.25328 2.5 11.5Z" stroke="black" stroke-width="2" stroke-linecap="round" stroke-linejoin="round"/>
<path d="M12.9502 2.04688C12.9502 2.04688 15.8002 5.79995 15.8002 11.4999C15.8002 17.1999 12.9502 20.953 12.9502 20.953" stroke="black" stroke-width="2" stroke-linecap="round" stroke-linejoin="round"/>
<path d="M11.0502 20.953C11.0502 20.953 8.2002 17.1999 8.2002 11.4999C8.2002 5.79995 11.0502 2.04688 11.0502 2.04688" stroke="black" stroke-width="2" stroke-linecap="round" stroke-linejoin="round"/>
<path d="M3.09766 14.825H20.9013" stroke="black" stroke-width="2" stroke-linecap="round" stroke-linejoin="round"/>
<path d="M3.09766 8.17505H20.9013" stroke="black" stroke-width="2" stroke-linecap="round" stroke-linejoin="round"/>
</g>
<defs>
<clipPath id="clip0_497_3052">
<rect width="24" height="24" fill="white"/>
</clipPath>
</defs>
</svg>
