<svg width="80" height="25" viewBox="0 0 80 25" fill="none" xmlns="http://www.w3.org/2000/svg">
<path d="M28.5987 0H38.3594C39.695 0 40.517 1.1302 40.2087 2.46584L35.688 22.0898C35.3798 23.4254 34.0441 24.5556 32.6057 24.5556H22.9479C21.6122 24.5556 20.6875 23.4254 21.0985 22.0898L25.6192 2.46584C25.9275 1.1302 27.2631 0 28.5987 0Z" fill="#D10429"/>
<path d="M37.5376 0H48.7366C50.0723 0 49.4558 1.1302 49.1476 2.46584L44.6269 22.1925C44.3187 23.5282 44.4214 24.6584 43.0857 24.6584H31.8867C30.551 24.6584 29.6264 23.5282 30.0374 22.1925L34.558 2.56856C34.8663 1.1302 36.202 0 37.5376 0Z" fill="#022E64"/>
<path d="M48.3254 0H58.086C59.4217 0 60.2436 1.1302 59.9354 2.46584L55.4147 22.0898C55.1065 23.4254 53.7708 24.5556 52.3324 24.5556H42.5718C41.2362 24.5556 40.4142 23.4254 40.7224 22.0898L45.2431 2.46584C45.6541 1.1302 46.9897 0 48.3254 0Z" fill="#076F74"/>
<path d="M46.6818 18.4937H47.6065L47.9147 17.569H46.99L46.6818 18.4937ZM47.401 16.1306L47.0928 17.1581C47.0928 17.1581 47.401 16.9525 47.6065 16.9525C47.812 16.9525 48.1202 16.8498 48.1202 16.8498L48.3257 16.1306H47.401ZM47.9147 14.5894L47.6065 15.6169C47.6065 15.6169 47.9147 15.4114 48.1202 15.4114C48.3257 15.4114 48.6339 15.3087 48.6339 15.3087L48.8394 14.5894H47.9147ZM49.9696 14.5894L48.7367 18.4937H49.0449L48.8394 19.3157H48.5311L48.4284 19.5211H47.2982L47.401 19.3157H45.1406L45.3461 18.5964H45.5516L46.7846 14.5894L46.99 13.7675H48.1202L48.0175 14.1785C48.0175 14.1785 48.3257 13.973 48.6339 13.8703C48.9422 13.7675 50.586 13.7675 50.586 13.7675L50.3805 14.5894H49.9696Z" fill="#FEFEFE"/>
<path d="M50.3801 13.7673H51.613V14.2811C51.613 14.3838 51.7157 14.3838 51.8185 14.3838H52.024L51.8185 15.103H51.202C50.5855 15.103 50.3801 14.8975 50.3801 14.5893V13.7673ZM50.5855 17.3634H49.4554L49.6608 16.6442H50.9966L51.202 16.0277H49.7636L49.9691 15.3085H53.6678L53.4624 16.0277H52.2295L52.024 16.6442H53.2569L53.0514 17.3634H51.7157L51.5102 17.6716H52.024L52.1267 18.4935C52.1267 18.5963 52.1267 18.5963 52.1267 18.699C52.1267 18.699 52.3322 18.699 52.4349 18.699H52.6404L52.4349 19.521H52.024C51.9212 19.521 51.8185 19.521 51.7157 19.521C51.613 19.521 51.5102 19.4182 51.4075 19.4182C51.3048 19.4182 51.202 19.3155 51.202 19.11L51.0993 18.2881L50.4828 19.11C50.2773 19.4182 50.0719 19.6237 49.5581 19.6237H48.7362L48.9417 18.9045H49.2499C49.3526 18.9045 49.4554 18.9045 49.4554 18.8017C49.5581 18.8017 49.5581 18.699 49.6608 18.699L50.5855 17.3634ZM37.7427 15.514H40.825L40.6195 16.2332H39.3865L39.181 16.8496H40.414L40.2085 17.6716H38.9756L38.6674 18.699C38.6674 18.8018 38.9756 18.8017 39.0783 18.8017L39.6948 18.699L39.4893 19.521H38.0509C37.9481 19.521 37.8454 19.521 37.7427 19.521C37.6399 19.521 37.5372 19.4182 37.5372 19.3155C37.5372 19.2128 37.4344 19.2128 37.4344 19.0073L37.8454 17.6716H37.1262L37.3317 16.8496H38.0509L38.2564 16.2332H37.5372L37.7427 15.514ZM39.9003 14.1784H41.1332L40.9277 15.0003H39.181L38.9756 15.2058C38.8728 15.3085 38.8728 15.2058 38.7701 15.3085C38.6674 15.3085 38.4619 15.4112 38.1536 15.4112H37.6399L37.8454 14.692H38.0509C38.1536 14.692 38.2564 14.692 38.3591 14.692C38.4619 14.692 38.4619 14.5893 38.5646 14.4866L38.8728 13.8701H40.1057L39.9003 14.1784ZM42.2633 15.4112C42.2633 15.4112 42.5716 15.1031 43.188 15.0003C43.2908 15.0003 44.2155 15.0003 44.2155 15.0003L44.3182 14.5893H42.5716L42.2633 15.4112ZM43.9073 15.8222H42.1606L42.0579 16.2332H43.599C43.8045 16.2332 43.8045 16.2332 43.8045 16.2332L43.9073 15.8222ZM41.6469 13.7673H42.7771L42.5716 14.2811C42.5716 14.2811 42.8798 13.9729 43.188 13.8701C43.3935 13.7673 44.01 13.6646 44.01 13.6646H45.7566L45.1402 15.7194C45.0374 16.0277 44.9347 16.2332 44.832 16.4387C44.7292 16.5414 44.7292 16.6441 44.5237 16.7469C44.4209 16.8496 44.2155 16.8496 44.1127 16.8496C44.01 16.8496 43.8045 16.8496 43.599 16.8496H41.9551L41.3386 18.4935C41.3386 18.699 41.2359 18.699 41.3386 18.8017C41.3386 18.8017 41.4414 18.9045 41.5442 18.9045L42.2633 18.8017L42.0579 19.6237H41.2359C40.9277 19.6237 40.825 19.6237 40.6195 19.6237C40.5167 19.6237 40.3112 19.6237 40.3112 19.521C40.2085 19.4182 40.1057 19.3155 40.1057 19.2128C40.1057 19.11 40.1057 19.0073 40.2085 18.8017L41.6469 13.7673Z" fill="#FEFEFE"/>
<path d="M44.8322 16.9527L44.7294 17.4664C44.7294 17.5692 44.6267 17.7747 44.5239 17.8774C44.4211 17.9801 44.3184 18.0829 43.9075 18.0829H43.291V18.5966C43.291 18.6993 43.291 18.6993 43.3937 18.8021C43.3937 18.8021 43.3937 18.8021 43.4965 18.8021H43.702H44.3184L44.0102 19.5213H43.3937C42.9828 19.5213 42.5718 19.5212 42.469 19.4185C42.3663 19.3158 42.3663 19.213 42.3663 19.1103V16.9527H43.3937V17.3636H43.5992C43.702 17.3636 43.702 17.3636 43.8047 17.3636L43.9075 17.2609L44.0102 16.9527H44.8322ZM29.8316 6.26738C29.8316 6.47289 29.1125 9.55518 29.1125 9.55518C29.0097 10.1716 28.9069 10.6854 28.496 10.8908C28.2905 11.1991 27.9823 11.3018 27.7767 11.3018C27.3658 11.3018 27.0576 11.0963 27.0576 10.6854V10.5826L27.1603 9.76069C27.1603 9.76069 27.8795 6.88384 27.9823 6.47289C26.6466 6.47289 26.3384 6.47289 26.3384 6.47289V6.6784L25.5164 9.76069V9.96613L25.4137 10.8908C25.4137 11.1991 25.4137 11.4046 25.6191 11.5073C25.9274 12.1237 26.8521 12.2265 27.4685 12.2265C28.1878 12.2265 28.8042 12.1237 29.2152 11.8155C29.9344 11.4046 30.1399 10.6854 30.3454 10.0689L30.4481 9.76069C30.4481 9.76069 31.1673 6.78112 31.2701 6.37017C30.1399 6.37017 29.9344 6.37017 29.8316 6.26738ZM33.8386 12.2265C33.3249 12.2265 33.2222 12.2265 32.6057 12.2265C32.6057 12.021 32.7084 11.8155 32.7084 11.6101L32.8112 11.3018C32.9139 10.7881 33.0166 10.2744 33.0166 10.1716C33.0166 10.0689 33.0166 9.86341 32.8112 9.86341C32.7084 9.86341 32.6057 9.96613 32.4002 9.96613C32.2975 10.1716 32.1947 10.8908 32.092 11.1991C31.9892 11.9183 31.9892 11.9183 31.8865 12.3292C31.3728 12.3292 31.1673 12.3292 30.6536 12.3292C30.7563 11.9183 30.859 11.5073 30.9618 11.0963C31.1673 9.96613 31.2701 9.55518 31.3728 9.04145C31.9892 8.93872 32.092 8.93872 32.7084 8.836V8.93872L32.6057 9.24695C32.7084 9.14423 32.8112 9.14423 32.9139 9.04145C33.2222 8.93872 33.5304 8.836 33.7359 8.836C34.0441 8.836 34.3524 8.93872 34.4551 9.24695C34.5578 9.55518 34.4551 9.86341 34.3524 10.5826L34.2496 10.8908C33.9413 11.5073 33.9413 11.6101 33.8386 12.2265ZM35.7907 12.2265C35.4825 12.2265 35.277 12.2265 35.0715 12.2265C34.866 12.2265 34.6606 12.2265 34.4551 12.2265C34.5578 11.9183 34.5578 11.8155 34.6606 11.7128C34.6606 11.6101 34.7633 11.5073 34.7633 11.1991C34.866 10.7881 34.866 10.5826 34.9688 10.2744C34.9688 10.0689 35.0715 9.86341 35.0715 9.65791C35.3798 9.65791 35.5853 9.55518 35.7907 9.55518C35.9962 9.55518 36.2017 9.45246 36.51 9.45246L36.3045 10.1716C36.2017 10.3772 36.2017 10.6854 36.0989 10.8908C35.9962 11.4046 35.8935 11.6101 35.8935 11.7128C35.8935 11.8155 35.8935 11.9183 35.7907 12.2265ZM38.9758 10.4799C38.9758 10.5826 38.873 11.0963 38.6676 11.3018C38.5648 11.4046 38.4621 11.5073 38.2566 11.5073C38.2566 11.5073 37.9483 11.5073 37.9483 11.0963C37.9483 10.8908 37.9483 10.6854 38.0511 10.5826C38.1538 9.96613 38.3593 9.55518 38.7703 9.55518C39.0785 9.55518 39.0785 9.86341 38.9758 10.4799ZM40.2087 10.4799C40.4142 9.76069 40.2087 9.34968 40.1059 9.14423C39.9005 8.836 39.3867 8.73322 38.9758 8.73322C38.6676 8.73322 38.0511 8.73322 37.5374 9.24695C37.1264 9.55518 37.0236 10.0689 36.9209 10.5826C36.8182 11.0963 36.7154 11.9183 37.4346 12.2265C37.6401 12.3292 38.0511 12.3292 38.2566 12.3292C38.7703 12.3292 39.3867 12.1237 39.7977 11.7128C40.0032 11.3018 40.2087 10.7881 40.2087 10.4799ZM52.1269 12.3292C51.5104 12.3292 51.4077 12.3292 50.7912 12.3292C50.894 11.8155 51.0995 11.1991 51.2022 10.5826C51.4077 9.86341 51.4077 9.55518 51.5104 9.04145C52.1269 8.93872 52.2297 8.93872 52.8461 8.836C52.8461 9.34968 52.7433 9.86341 52.6406 10.2744C52.4351 11.3018 52.3324 11.7128 52.1269 12.3292Z" fill="#FEFEFE"/>
<path d="M51.305 10.5826C51.305 10.6854 51.2023 11.1991 50.9968 11.4046C50.894 11.5073 50.6885 11.6101 50.483 11.6101C50.483 11.6101 50.1748 11.6101 50.1748 11.3018C50.1748 11.0963 50.1748 10.8908 50.2776 10.7881C50.3803 10.2744 50.5858 9.76069 50.9968 9.76069C51.305 9.6579 51.4077 9.96613 51.305 10.5826ZM52.4352 10.5826C52.6406 9.86341 51.9215 10.4799 51.8187 10.2744C51.6132 9.86341 51.7159 9.14423 51.0995 8.836C50.7913 8.73322 50.1748 8.836 49.6611 9.34968C49.2501 9.6579 49.1474 10.1716 49.0447 10.5826C48.9419 10.9936 48.8392 11.9183 49.5583 12.2265C49.7638 12.3292 49.9694 12.3292 50.2776 12.3292C50.9968 12.3292 51.6132 11.0963 52.0242 10.6854C52.3324 10.3772 52.4352 10.8908 52.4352 10.5826ZM43.5993 12.2265C43.0855 12.2265 42.9828 12.2265 42.3663 12.2265C42.3663 12.021 42.4691 11.8155 42.5718 11.6101L42.6746 11.3018C42.7773 10.7881 42.8801 10.2744 42.8801 10.1716C42.8801 10.0689 42.8801 9.86341 42.6746 9.86341C42.5718 9.86341 42.4691 9.96613 42.2636 9.96613C42.1608 10.1716 42.0581 10.8908 41.9554 11.1991C41.8526 11.9183 41.8526 11.9183 41.7499 12.3292C41.2361 12.3292 41.0307 12.3292 40.517 12.3292C40.6197 11.9183 40.7225 11.5073 40.8252 11.0963C41.0307 9.96613 41.1334 9.55518 41.2361 9.04145C41.8526 8.93872 41.9554 8.93872 42.5718 8.836V8.93872L42.4691 9.24695C42.5718 9.14423 42.6746 9.14423 42.7773 9.04145C43.0855 8.93872 43.3937 8.836 43.5993 8.836C43.9075 8.836 44.113 8.93872 44.3184 9.24695C44.4212 9.55518 44.3184 9.86341 44.2157 10.5826L44.113 10.8908C43.702 11.5073 43.702 11.6101 43.5993 12.2265ZM47.8117 6.26738H47.4007C46.3733 6.26738 45.9624 6.26738 45.7569 6.26738C45.7569 6.37017 45.7569 6.47289 45.7569 6.47289L45.3459 8.21954C45.3459 8.21954 44.4212 12.021 44.4212 12.1237C45.3459 12.1237 45.7569 12.1237 45.8596 12.1237C45.8596 11.9183 46.0651 10.8908 46.0651 10.8908L46.2706 10.0689L46.3733 9.96613H46.476C47.298 9.96613 48.2227 9.96613 48.8392 9.45246C49.3529 9.24695 49.7638 8.73322 49.8666 8.01404C49.8666 7.80853 49.9694 7.70581 49.9694 7.5003C49.9694 7.29485 49.9694 6.98663 49.7638 6.78112C49.3529 6.26738 48.6337 6.26738 47.8117 6.26738ZM48.3254 8.11676C48.2227 8.52777 48.0172 8.836 47.709 9.04145C47.4007 9.14423 47.0925 9.14423 46.7843 9.14423H46.5788V9.04145L46.9898 7.29486V7.19207V7.08935H47.1953L48.0172 7.19207C48.3254 7.39758 48.4282 7.70581 48.3254 8.11676ZM57.0586 8.73322C56.4422 8.836 56.3394 8.836 55.7229 8.93872C55.312 9.86341 55.312 9.65791 55.0038 10.4799V10.3772L54.901 8.73322V8.6305C54.2846 8.73322 54.2846 8.73322 53.6681 8.836C53.6681 8.836 53.6681 8.836 53.6681 8.93872C53.7708 9.34968 53.7708 9.24695 53.7708 9.86341C53.7708 10.1716 53.8736 10.4799 53.8736 10.6854C53.9763 11.1991 53.9763 11.4046 54.0791 12.1237C53.6681 12.7402 53.5653 13.0484 53.2571 13.5622V13.6649C53.8736 13.6649 53.9763 13.6649 54.3873 13.6649L54.49 13.5622C54.5928 12.9457 57.0586 8.73322 57.0586 8.73322ZM36.4073 9.24695C36.7155 9.04145 36.8182 8.73322 36.51 8.52777C36.2017 8.32227 35.7908 8.42499 35.3798 8.6305C35.0716 8.836 34.9688 9.14423 35.2771 9.34968C35.5853 9.45246 35.9962 9.45246 36.4073 9.24695Z" fill="#FEFEFE"/>
<path d="M55.0549 14L54.5411 14.8219C54.4384 15.1301 54.1302 15.3356 53.7192 15.3356H53L53.2055 14.6165H53.3082C53.411 14.6165 53.411 14.6165 53.5137 14.6165C53.5137 14.6165 53.6165 14.6165 53.6165 14.5137L53.9247 14.1027L55.0549 14Z" fill="#FEFEFE"/>
</svg>
