<svg width="80" height="25" viewBox="0 0 80 25" fill="none" xmlns="http://www.w3.org/2000/svg">
<g clip-path="url(#clip0_3_4287)">
<path d="M29.8408 24.8671V23.2121C29.8408 22.59 29.4421 22.1672 28.8019 22.1612C28.4636 22.1551 28.1193 22.2578 27.8777 22.6323C27.6965 22.3424 27.4066 22.1612 27.008 22.1612C26.7241 22.1612 26.4523 22.2457 26.2348 22.5538V22.2276H25.661V24.8671H26.2409V23.4054C26.2409 22.9464 26.4945 22.7048 26.8872 22.7048C27.2677 22.7048 27.461 22.9524 27.461 23.3994V24.8671H28.0408V23.4054C28.0408 22.9464 28.3066 22.7048 28.6871 22.7048C29.0797 22.7048 29.267 22.9524 29.267 23.3994V24.8671H29.8408V24.8671ZM38.4177 22.2276H37.4815V21.4303H36.9016V22.2276H36.3641V22.7531H36.9016V23.9551C36.9016 24.5651 37.1372 24.9336 37.8197 24.9336C38.0674 24.9336 38.3573 24.855 38.5385 24.7282L38.3754 24.2389C38.2063 24.3356 38.0191 24.39 37.8681 24.39C37.5842 24.39 37.4875 24.2148 37.4875 23.949V22.7591H38.4238V22.2276H38.4177ZM43.3102 22.1612C42.978 22.1612 42.7666 22.3182 42.6156 22.5477V22.2276H42.0478V24.8671H42.6216V23.3873C42.6216 22.9524 42.8089 22.7108 43.1834 22.7108C43.2981 22.7108 43.4189 22.7289 43.5397 22.7772L43.7149 22.2336C43.5941 22.1853 43.425 22.1612 43.3102 22.1612ZM35.9111 22.439C35.6332 22.2578 35.2527 22.1612 34.8359 22.1612C34.1655 22.1612 33.7366 22.4813 33.7366 23.0068C33.7366 23.4356 34.0568 23.7014 34.6487 23.7859L34.9205 23.8222C35.2346 23.8645 35.3856 23.949 35.3856 24.1C35.3856 24.3054 35.1742 24.4202 34.7816 24.4202C34.3829 24.4202 34.099 24.2933 33.9058 24.1423L33.634 24.5893C33.948 24.8188 34.3467 24.9336 34.7755 24.9336C35.5366 24.9336 35.9775 24.5772 35.9775 24.0759C35.9775 23.6108 35.6272 23.3692 35.0534 23.2846L34.7816 23.2484C34.5339 23.2182 34.3346 23.1638 34.3346 22.9886C34.3346 22.7954 34.5218 22.6806 34.8359 22.6806C35.1742 22.6806 35.5003 22.8074 35.6574 22.9041L35.9111 22.439ZM51.2831 22.1612C50.9509 22.1612 50.7395 22.3182 50.5885 22.5477V22.2276H50.0208V24.8671H50.5946V23.3873C50.5946 22.9524 50.7818 22.7108 51.1563 22.7108C51.2711 22.7108 51.3919 22.7289 51.5127 22.7772L51.6878 22.2336C51.561 22.1853 51.3979 22.1612 51.2831 22.1612ZM43.8901 23.5443C43.8901 24.3416 44.4457 24.9275 45.2974 24.9275C45.696 24.9275 45.9618 24.8369 46.2457 24.6134L45.9678 24.1483C45.7504 24.3054 45.5269 24.3839 45.2793 24.3839C44.8202 24.3779 44.482 24.0457 44.482 23.5383C44.482 23.0309 44.8202 22.6987 45.2793 22.6927C45.5269 22.6927 45.7564 22.7772 45.9678 22.9282L46.2457 22.4632C45.9618 22.2397 45.696 22.1491 45.2974 22.1491C44.4457 22.1612 43.8901 22.747 43.8901 23.5443ZM49.2657 23.5443V22.2276H48.6919V22.5477C48.5107 22.3122 48.2329 22.1612 47.8584 22.1612C47.1215 22.1612 46.5417 22.741 46.5417 23.5443C46.5417 24.3477 47.1215 24.9275 47.8584 24.9275C48.2329 24.9275 48.5107 24.7765 48.6919 24.541V24.8611H49.2657V23.5443ZM47.1275 23.5443C47.1275 23.0792 47.4296 22.6987 47.9248 22.6987C48.402 22.6987 48.7221 23.0611 48.7221 23.5443C48.7221 24.0215 48.402 24.39 47.9248 24.39C47.4296 24.39 47.1275 24.0094 47.1275 23.5443ZM40.2056 22.1612C39.4325 22.1612 38.8949 22.7229 38.8949 23.5443C38.8949 24.3839 39.4566 24.9275 40.2479 24.9275C40.6465 24.9275 41.0089 24.8309 41.329 24.5591L41.0452 24.1363C40.8217 24.3114 40.5438 24.4141 40.2781 24.4141C39.9096 24.4141 39.5714 24.245 39.4868 23.7678H41.4438C41.4498 23.6953 41.4559 23.6229 41.4559 23.5443C41.4498 22.7229 40.9425 22.1612 40.2056 22.1612ZM40.1935 22.6746C40.562 22.6746 40.7975 22.9041 40.864 23.3148H39.4929C39.5533 22.9343 39.7828 22.6746 40.1935 22.6746ZM54.5871 23.5443V21.1645H54.0133V22.5417C53.8321 22.3061 53.5542 22.1551 53.1797 22.1551C52.4428 22.1551 51.863 22.735 51.863 23.5383C51.863 24.3416 52.4428 24.9215 53.1797 24.9215C53.5542 24.9215 53.8321 24.7705 54.0133 24.5349V24.855H54.5871V23.5443ZM55.5414 24.4806C55.5777 24.4806 55.6139 24.4866 55.6441 24.4987C55.6743 24.5108 55.7045 24.5289 55.7287 24.553C55.7528 24.5772 55.7709 24.6074 55.783 24.6376C55.7951 24.6678 55.8011 24.704 55.8011 24.7403C55.8011 24.7765 55.7951 24.8128 55.783 24.843C55.7709 24.8732 55.7528 24.9034 55.7287 24.9275C55.7045 24.9517 55.6743 24.9698 55.6441 24.9819C55.6139 24.994 55.5777 25 55.5414 25C55.5052 25 55.4689 24.994 55.4387 24.9819C55.4085 24.9698 55.3783 24.9517 55.3542 24.9275C55.33 24.9034 55.3119 24.8732 55.2998 24.843C55.2877 24.8128 55.2817 24.7765 55.2817 24.7403C55.2817 24.704 55.2877 24.6678 55.2998 24.6376C55.3119 24.6074 55.33 24.5772 55.3542 24.553C55.3783 24.5289 55.4085 24.5108 55.4387 24.4987C55.4689 24.4926 55.5052 24.4806 55.5414 24.4806ZM55.5414 24.9517C55.5716 24.9517 55.5958 24.9456 55.6199 24.9336C55.6441 24.9215 55.6683 24.9094 55.6864 24.8913C55.7045 24.8732 55.7166 24.849 55.7287 24.8248C55.7407 24.8007 55.7468 24.7705 55.7468 24.7463C55.7468 24.7222 55.7407 24.692 55.7287 24.6678C55.7166 24.6436 55.7045 24.6195 55.6864 24.6014C55.6683 24.5832 55.6441 24.5712 55.6199 24.5591C55.5958 24.547 55.5716 24.541 55.5414 24.541C55.5112 24.541 55.4871 24.547 55.4629 24.5591C55.4387 24.5712 55.4146 24.5832 55.3965 24.6014C55.3783 24.6195 55.3663 24.6436 55.3542 24.6678C55.3421 24.692 55.3361 24.7222 55.3361 24.7463C55.3361 24.7705 55.3421 24.8007 55.3542 24.8248C55.3663 24.849 55.3783 24.8732 55.3965 24.8913C55.4146 24.9094 55.4387 24.9215 55.4629 24.9336C55.4871 24.9456 55.5173 24.9517 55.5414 24.9517ZM55.5595 24.6255C55.5897 24.6255 55.6139 24.6316 55.632 24.6436C55.6501 24.6557 55.6562 24.6738 55.6562 24.698C55.6562 24.7161 55.6501 24.7342 55.6381 24.7463C55.626 24.7584 55.6079 24.7644 55.5777 24.7705L55.6562 24.8611H55.5958L55.5233 24.7705H55.4991V24.8611H55.4448V24.6195H55.5595V24.6255ZM55.4991 24.6678V24.7342H55.5595C55.5716 24.7342 55.5837 24.7342 55.5897 24.7282C55.5958 24.7222 55.6018 24.7161 55.6018 24.704C55.6018 24.692 55.5958 24.6859 55.5897 24.6799C55.5837 24.6738 55.5716 24.6738 55.5595 24.6738H55.4991V24.6678ZM52.4549 23.5443C52.4549 23.0792 52.7569 22.6987 53.2522 22.6987C53.7294 22.6987 54.0495 23.0611 54.0495 23.5443C54.0495 24.0215 53.7294 24.39 53.2522 24.39C52.7569 24.39 52.4549 24.0094 52.4549 23.5443ZM33.0783 23.5443V22.2276H32.5045V22.5477C32.3232 22.3122 32.0454 22.1612 31.6709 22.1612C30.934 22.1612 30.3542 22.741 30.3542 23.5443C30.3542 24.3477 30.934 24.9275 31.6709 24.9275C32.0454 24.9275 32.3232 24.7765 32.5045 24.541V24.8611H33.0783V23.5443ZM30.9401 23.5443C30.9401 23.0792 31.2421 22.6987 31.7374 22.6987C32.2145 22.6987 32.5347 23.0611 32.5347 23.5443C32.5347 24.0215 32.2145 24.39 31.7374 24.39C31.2421 24.39 30.9401 24.0094 30.9401 23.5443Z" fill="#231F20"/>
<path d="M44.4156 2.13216H35.7239V17.7519H44.4156V2.13216Z" fill="#FF5F00"/>
<path d="M36.2735 9.94202C36.2735 6.77096 37.7594 3.95023 40.0667 2.13216C38.3755 0.803336 36.2433 0.00604248 33.9299 0.00604248C28.4455 0.00604248 24 4.45156 24 9.93598C24 15.4204 28.4455 19.8659 33.9299 19.8659C36.2493 19.8659 38.3755 19.0747 40.0667 17.7398C37.7594 15.9278 36.2735 13.107 36.2735 9.94202Z" fill="#EB001B"/>
<path d="M56.1333 9.94202C56.1333 15.4264 51.6878 19.872 46.2034 19.872C43.884 19.872 41.7579 19.0807 40.0667 17.7458C42.374 15.9278 43.8598 13.107 43.8598 9.93598C43.8598 6.76492 42.374 3.94419 40.0667 2.12612C41.7579 0.797294 43.89 0 46.2034 0C51.6878 0.00604011 56.1333 4.45156 56.1333 9.94202Z" fill="#F79E1B"/>
<path d="M55.1911 16.0909V15.7707H55.3179V15.7043H54.9857V15.7707H55.1126V16.0909H55.1911ZM55.8253 16.0909V15.7043H55.7226L55.6078 15.97L55.4931 15.7043H55.3904V16.0909H55.4629V15.8009L55.5716 16.0546H55.6441L55.7528 15.8009V16.0909H55.8253Z" fill="#F79E1B"/>
</g>
<defs>
<clipPath id="clip0_3_4287">
<rect width="80" height="25" fill="white"/>
</clipPath>
</defs>
</svg>
