<svg width="80" height="25" viewBox="0 0 80 25" fill="none" xmlns="http://www.w3.org/2000/svg">
<path d="M13.4603 7.74683L10.8931 14.2401L9.85242 8.71867C9.73201 8.10374 9.25039 7.74683 8.71716 7.74683H4.51586L4.45996 8.02204C5.32 8.21125 6.30045 8.51226 6.89388 8.83478C7.25509 9.03259 7.3626 9.20459 7.4787 9.67332L9.4482 17.289H12.0584L16.0576 7.74683H13.4603V7.74683Z" fill="#182E66"/>
<path d="M17.1155 7.74683L15.0729 17.289H17.5412L19.5795 7.74683H17.1155Z" fill="#182E66"/>
<path d="M22.8175 10.3915C22.8261 10.0517 23.1529 9.68623 23.8668 9.59162C24.2237 9.54862 25.1955 9.51422 26.3007 10.0173L26.735 7.99625C26.1416 7.78124 25.3761 7.57053 24.4258 7.57053C21.9833 7.57053 20.2718 8.86919 20.2546 10.7269C20.2417 12.0986 21.4802 12.8641 22.4133 13.3242C23.3765 13.7886 23.6991 14.0896 23.6948 14.5111C23.6905 15.1518 22.9293 15.4313 22.2198 15.4442C20.977 15.4657 20.2589 15.1088 19.6827 14.8422L19.2397 16.9321C19.816 17.1944 20.8781 17.4266 21.9833 17.4395C24.572 17.4395 26.2706 16.158 26.2792 14.1756C26.2878 11.6557 22.796 11.5138 22.8175 10.3915Z" fill="#182E66"/>
<path d="M29.9645 13.909L31.276 10.3269L32.0157 13.909H29.9645V13.909ZM30.9019 7.74683C30.4289 7.74683 30.029 8.02204 29.8483 8.44776L26.1459 17.289H28.7389L29.2549 15.8656H32.4156L32.7123 17.289H35L33.009 7.74683H30.9019Z" fill="#182E66"/>
<path fill-rule="evenodd" clip-rule="evenodd" d="M40 25H80V0H40V25Z" fill="#182E66"/>
<path fill-rule="evenodd" clip-rule="evenodd" d="M46.2592 14.0905C46.6202 14.3036 47.1848 14.4887 47.7677 14.4887C48.4896 14.4887 48.897 14.1461 48.897 13.637C48.897 13.165 48.5822 12.8874 47.7955 12.6006C46.7588 12.2394 46.1017 11.6842 46.1017 10.7956C46.1017 9.7681 46.9533 9 48.314 9C48.9895 9 49.4799 9.1481 49.8039 9.3054L49.5358 10.231C49.3043 10.1107 48.8692 9.9348 48.2862 9.9348C47.5641 9.9348 47.2587 10.3143 47.2587 10.6845C47.2587 11.166 47.6196 11.388 48.4527 11.7026C49.5358 12.1191 50.054 12.6654 50.054 13.5537C50.054 14.5626 49.2949 15.4234 47.6938 15.4234C47.0272 15.4234 46.3423 15.2384 46 15.035L46.2592 14.0905Z" fill="#FFFFFE"/>
<path fill-rule="evenodd" clip-rule="evenodd" d="M54.479 12.5634H52.128V14.3962H54.7569V15.3309H50.9899V9.09259H54.618V10.0273H52.128V11.6378H54.479V12.5634Z" fill="#FFFFFE"/>
<path fill-rule="evenodd" clip-rule="evenodd" d="M60.1352 15.1459C59.8668 15.2753 59.2744 15.4234 58.5156 15.4234C56.5349 15.4234 55.3315 14.1831 55.3315 12.2858C55.3315 10.231 56.7661 9 58.6728 9C59.4225 9 59.9502 9.1481 60.1814 9.2685L59.941 10.1754C59.6448 10.0459 59.2283 9.9348 58.7192 9.9348C57.4511 9.9348 56.5349 10.7309 56.5349 12.2302C56.5349 13.6001 57.3307 14.4701 58.7098 14.4701C59.1633 14.4701 59.6448 14.3776 59.9502 14.2478L60.1352 15.1459Z" fill="#FFFFFE"/>
<path fill-rule="evenodd" clip-rule="evenodd" d="M62.1446 9.09259V12.7301C62.1446 13.9519 62.6537 14.5162 63.422 14.5162C64.2456 14.5162 64.7363 13.9519 64.7363 12.7301V9.09259H65.8747V12.6559C65.8747 14.5812 64.8844 15.4326 63.385 15.4326C61.9409 15.4326 61.0062 14.6276 61.0062 12.6654V9.09259H62.1446Z" fill="#FFFFFE"/>
<path fill-rule="evenodd" clip-rule="evenodd" d="M68.2172 11.934H68.893C69.6615 11.934 70.1336 11.5269 70.1336 10.9067C70.1336 10.231 69.6615 9.90699 68.921 9.90699C68.5598 9.90699 68.3286 9.93479 68.2172 9.96279V11.934ZM67.0885 9.18509C67.5231 9.10169 68.1527 9.04639 68.8099 9.04639C69.7077 9.04639 70.3095 9.19429 70.7349 9.54629C71.0773 9.83309 71.2718 10.2679 71.2718 10.805C71.2718 11.61 70.7258 12.156 70.1336 12.36V12.3875C70.5868 12.5542 70.8555 12.9891 71.0036 13.5906C71.207 14.3684 71.3737 15.0903 71.4941 15.3309H70.3279C70.2351 15.1458 70.0778 14.6368 69.9111 13.8593C69.726 13.0446 69.4393 12.7857 68.7915 12.767H68.2172V15.3309H67.0885V9.18509Z" fill="#FFFFFE"/>
<path fill-rule="evenodd" clip-rule="evenodd" d="M75.7526 12.5634H73.4016V14.3962H76.0302V15.3309H72.2632V9.09259H75.8913V10.0273H73.4016V11.6378H75.7526V12.5634Z" fill="#FFFFFE"/>
</svg>
