<svg width="18" height="21" viewBox="0 0 18 21" fill="none" xmlns="http://www.w3.org/2000/svg">
<g clip-path="url(#clip0_3029_1134)">
<path fill-rule="evenodd" clip-rule="evenodd" d="M0.426138 2.51998C-0.214862 6.97998 4.80414 13.112 7.34714 16.051C9.03814 17.747 11.0421 19.728 13.4911 20.081C14.6321 20.247 17.1551 17.778 17.3081 16.687C17.2491 15.888 14.0831 13.345 13.1071 12.778C12.4331 12.545 10.6251 13.521 10.2921 13.557C9.88514 13.498 5.88014 8.18898 5.76614 7.54298C5.72214 7.30298 7.60914 5.63298 7.28114 4.63298C7.05514 3.93498 5.67414 0.939979 5.23014 0.285979C3.44414 -0.549021 0.573138 1.48298 0.426138 2.52498V2.51998Z" fill="#E4002B"/>
</g>
<defs>
<clipPath id="clip0_3029_1134">
<rect width="18" height="21" fill="white"/>
</clipPath>
</defs>
</svg>
