<svg width="21" height="21" viewBox="0 0 21 21" fill="none" xmlns="http://www.w3.org/2000/svg">
<path fill-rule="evenodd" clip-rule="evenodd" d="M8.60714 3.99516C12.0987 3.2562 15.19 4.79577 15.8982 8.17029C16.6064 11.5448 14.4083 14.2239 10.9106 14.9445L10.0728 15.123C9.90746 15.1594 9.75063 15.2278 9.61201 15.3251C9.47344 15.4223 9.35565 15.5463 9.26519 15.6894C9.17471 15.8325 9.1132 15.9923 9.08484 16.1593C9.05649 16.3262 9.06178 16.4973 9.09992 16.6623L9.61081 19.0888C9.67627 19.4225 9.60804 19.7686 9.42021 20.0521C9.23233 20.3356 8.94004 20.5336 8.60714 20.6034L6.98763 20.9731C6.82053 21.0079 6.64788 21.0089 6.48036 20.9762C6.31287 20.9434 6.15336 20.8771 6.0117 20.7819C5.87011 20.6867 5.74881 20.5639 5.65523 20.4212C5.56168 20.2785 5.49731 20.1186 5.46644 19.9508L2.64663 6.56285C2.57735 6.22981 2.64243 5.88275 2.82818 5.59778C3.01394 5.31288 3.30502 5.11328 3.63763 5.04226L8.60714 3.99516ZM10.1555 7.54842C9.90117 7.5126 9.64189 7.53161 9.39548 7.60391L8.53355 7.78245C8.3684 7.81686 8.21143 7.88333 8.07213 7.97848C7.93286 8.07361 7.8138 8.19548 7.72168 8.33676C7.62956 8.4781 7.56614 8.63654 7.53531 8.80241C7.50451 8.96822 7.50677 9.1387 7.54194 9.30364L7.79467 10.5353C7.86571 10.8679 8.06528 11.159 8.35019 11.3448C8.63516 11.5305 8.98222 11.5956 9.31525 11.5263L10.1959 11.3357C10.451 11.2996 10.6956 11.2091 10.913 11.0709C11.1306 10.9327 11.3166 10.7498 11.4577 10.5341C11.5987 10.3185 11.6921 10.0751 11.7315 9.82056C11.771 9.56586 11.7555 9.30523 11.6863 9.05695C11.6467 8.80328 11.5532 8.56116 11.4125 8.34641C11.2717 8.13162 11.0871 7.94898 10.8702 7.8114C10.6534 7.67387 10.4097 7.58426 10.1555 7.54842Z" fill="white"/>
<path d="M16.4821 10.101C16.5479 9.53804 16.5334 8.94793 16.4302 8.33797H19.3098L16.4821 10.101Z" fill="white"/>
<path d="M16.3922 8.09127C16.3718 7.99949 16.3468 7.90694 16.3198 7.81382C16.1671 7.20196 15.9387 6.64674 15.6449 6.15149H19.4557L16.3922 8.09127Z" fill="white"/>
<path d="M7.35375 0.0118377C7.86694 -0.0403908 8.38305 0.0812037 8.82126 0.35685C9.1824 0.638527 9.4457 1.02981 9.57281 1.47331C9.79703 1.16396 10.0895 0.911269 10.4269 0.736846C10.7644 0.56242 11.138 0.470722 11.5168 0.468436C11.8162 0.481959 12.1101 0.556561 12.3806 0.687386C12.6509 0.818221 12.8925 1.0029 13.0911 1.23024C13.3966 1.63763 13.5878 2.12117 13.6448 2.62959C13.6994 3.11652 13.6275 3.60855 13.4391 4.0591C12.1261 3.36743 10.5247 3.1589 8.84961 3.44748L8.5058 3.51383L3.5363 4.55973L3.5351 4.56033C3.07508 4.65854 2.67248 4.93531 2.41562 5.32937C2.33771 5.44892 2.27655 5.57697 2.22984 5.70936C1.84798 5.27055 1.61191 4.72031 1.5567 4.13751C1.50087 3.54702 1.63283 2.95387 1.93368 2.44502C2.323 1.9341 2.88008 1.58052 3.50373 1.44919C4.12745 1.31796 4.77765 1.41687 5.33555 1.72845C5.44379 1.31177 5.66889 0.935785 5.98335 0.645767C6.35868 0.287288 6.84059 0.0641362 7.35375 0.0118377Z" fill="white"/>
</svg>
