<svg width="121" height="40" viewBox="0 0 121 40" fill="none" xmlns="http://www.w3.org/2000/svg">
<g clip-path="url(#clip0_3111_1160)">
<path fill-rule="evenodd" clip-rule="evenodd" d="M24.6479 0.0283493C24.0571 0.146982 23.5605 0.626811 23.4068 1.22762C23.3675 1.38105 23.3565 1.50928 23.3565 1.81342C23.3565 4.24122 24.3417 6.69802 26.0114 8.43425C26.3384 8.77425 26.5717 8.95894 26.9104 9.14599C27.3888 9.41024 27.9417 9.548 28.517 9.54632C29.1863 9.54436 29.8111 9.35715 30.3645 8.99272C30.6253 8.82097 30.7137 8.73739 32.7856 6.70367C33.8578 5.65118 35.3486 4.18892 36.0985 3.4542C36.8483 2.7195 37.4949 2.07781 37.5354 2.02824C37.5758 1.97867 37.6446 1.8636 37.6883 1.77253C37.7646 1.61342 37.7677 1.59403 37.7677 1.27579C37.7677 0.945822 37.7673 0.943912 37.6724 0.745112C37.5107 0.406664 37.1925 0.142448 36.8559 0.0670189C36.6539 0.0218025 36.0062 0.0155614 30.3519 0.00435278C25.7365 -0.00476692 24.7931 -0.000818447 24.6479 0.0283493ZM17.5335 2.00106C16.5083 2.14807 15.6398 2.76199 15.1902 3.65761C14.9417 4.15252 14.8727 4.47255 14.8526 5.22426L14.8375 5.78469L14.6746 5.85882C13.9239 6.20025 13.3606 6.92715 13.203 7.75768C13.1455 8.06065 13.1443 10.1515 13.2015 10.4528C13.396 11.478 14.1335 12.2709 15.1437 12.5408C15.377 12.6031 15.4366 12.608 16.0809 12.6172C16.7343 12.6265 16.773 12.6244 16.8504 12.576C16.8952 12.548 16.9493 12.4984 16.9707 12.4657C16.9949 12.4287 17.0576 12.0773 17.1379 11.5284C17.2086 11.0454 17.2993 10.4268 17.3396 10.1536C17.3844 9.84964 17.4048 9.63601 17.3921 9.60279C17.3808 9.57296 17.3311 9.52357 17.2816 9.493C17.1454 9.40889 16.9709 9.20092 16.8778 9.0119C16.7982 8.85042 16.7944 8.82917 16.7944 8.54916C16.7944 8.2718 16.7989 8.24622 16.876 8.0835C17.0944 7.62257 17.6106 7.34106 18.0848 7.42428C18.741 7.53945 19.1807 8.19724 19.0151 8.8161C18.9409 9.09329 18.8016 9.28939 18.5171 9.5171L18.4051 9.60669L18.4487 9.91195C18.6796 11.5296 18.8228 12.4261 18.8589 12.4813C18.9499 12.62 19.0176 12.6303 19.7595 12.6182C20.3436 12.6087 20.4655 12.5997 20.6305 12.5546C21.1562 12.4107 21.5647 12.1775 21.9153 11.821C22.2472 11.4836 22.4648 11.0922 22.5958 10.5966C22.6549 10.3732 22.6557 10.3524 22.6552 9.10906L22.6546 7.84809L22.5851 7.59335C22.3731 6.81718 21.8286 6.16466 21.1278 5.84703L20.967 5.77415L20.9547 5.18078C20.9437 4.65067 20.9355 4.56138 20.8778 4.34324C20.5601 3.14204 19.6856 2.29437 18.5015 2.03981C18.2837 1.99298 17.7413 1.97128 17.5335 2.00106ZM18.1509 2.66606C19.1565 2.77814 19.9546 3.48092 20.2266 4.4938C20.267 4.64442 20.282 4.79602 20.2919 5.15421L20.3047 5.61911H17.9162H15.5276L15.5391 5.116C15.5494 4.66338 15.5573 4.59042 15.6184 4.38902C15.7472 3.96406 15.9561 3.61881 16.2634 3.32324C16.6494 2.95195 17.1431 2.7191 17.6602 2.66448C17.7587 2.65409 17.854 2.644 17.8721 2.64211C17.8902 2.6402 18.0156 2.65098 18.1509 2.66606ZM38.8252 2.82955C38.7341 2.84996 38.5621 2.91441 38.443 2.97274C38.25 3.06725 38.1874 3.11799 37.8687 3.43825C36.4007 4.91371 35.4373 6.90181 35.1701 9.00716C35.1073 9.50253 35.0791 10.1302 35.106 10.4366C35.2234 11.775 36.1099 12.9005 37.3813 13.3253C37.876 13.4906 37.8578 13.4895 40.4944 13.5167C46.7991 13.5818 47.7383 13.5882 47.8466 13.5671C48.2425 13.4896 48.5489 13.2561 48.7246 12.8978C48.9044 12.5311 48.9044 12.1529 48.7247 11.7894C48.6379 11.6139 48.5094 11.4795 46.362 9.31835C41.7886 4.71568 40.2117 3.14416 40.0751 3.05296C39.8501 2.90274 39.5468 2.81052 39.2457 2.80071C39.0855 2.79552 38.9294 2.80622 38.8252 2.82955ZM64.8159 4.20469C63.0601 4.42769 62.9097 4.46127 62.3459 4.75603C61.2201 5.34453 60.5457 6.48854 60.4106 8.03915C60.3772 8.42189 60.3773 9.81963 60.4107 10.1572C60.501 11.0692 60.8213 11.7776 61.3838 12.3093C61.8127 12.7147 62.3663 12.9877 62.985 13.0991C63.3123 13.158 64.0048 13.1579 64.3285 13.0989C65.8983 12.8127 66.9083 11.6047 66.9083 10.0134C66.9083 8.62525 66.1616 7.53629 64.926 7.12249C64.2539 6.8974 63.3612 6.90843 62.7591 7.14929C62.3805 7.30073 62.003 7.60762 61.8245 7.90905C61.7824 7.98005 61.7391 8.03836 61.7282 8.03864C61.6696 8.04014 61.8006 7.30035 61.9137 6.99036C62.1845 6.24886 62.6648 5.80326 63.4333 5.58062C63.6359 5.52195 64.0838 5.46069 65.6598 5.27605C65.9611 5.24075 66.2452 5.20549 66.291 5.19772L66.3743 5.18356L66.3675 4.6056C66.3616 4.11441 66.3549 4.02693 66.3224 4.02293C66.3013 4.02031 65.6234 4.10211 64.8159 4.20469ZM70.4508 6.70604C70.0388 6.77125 69.7039 6.87124 69.4187 7.01422C68.5497 7.44983 67.9811 8.22032 67.7577 9.26508C67.6945 9.56013 67.6943 10.3029 67.7573 10.6174C67.8877 11.2688 68.1773 11.8266 68.6096 12.2586C69.0541 12.703 69.7148 13.0216 70.4017 13.1228C70.7476 13.1738 71.3994 13.1603 71.6867 13.0963C72.5942 12.894 73.3407 12.3513 73.7317 11.6096C73.7883 11.5023 73.8424 11.3887 73.8518 11.3571L73.869 11.2998H73.2058H72.5426L72.4715 11.3911C72.3689 11.5228 72.0772 11.7458 71.892 11.8341C71.3567 12.0895 70.5279 12.072 70.021 11.7947C69.5923 11.5601 69.2983 11.2146 69.1663 10.7903C69.1336 10.6853 69.0995 10.5506 69.0905 10.4912L69.0741 10.383L71.5654 10.3765L74.0567 10.37L74.0648 10.2044C74.0692 10.1134 74.0602 9.90703 74.0447 9.74591C73.8797 8.03135 72.9331 6.94644 71.4015 6.71653C71.2298 6.69075 70.5918 6.68372 70.4508 6.70604ZM89.6274 6.70657C89.4228 6.73307 89.1219 6.80429 88.9266 6.87244C87.9203 7.22357 87.1745 8.17204 87.0044 9.31698C86.9581 9.6288 86.952 10.1886 86.9918 10.4747C87.1421 11.5547 87.7326 12.4111 88.6335 12.8557C89.0787 13.0753 89.3372 13.1366 89.887 13.1529C90.4076 13.1682 90.6441 13.1397 91.0126 13.0174C91.4832 12.8612 91.9446 12.5846 92.2384 12.2827C92.3009 12.2185 92.3611 12.1659 92.3722 12.1659C92.3833 12.1659 92.3924 12.3667 92.3924 12.6121V13.0584L93.0741 13.0516L93.7558 13.0448L93.7623 9.93059L93.7687 6.81639H93.1587C92.5998 6.81639 92.5477 6.82011 92.5356 6.86097C92.5284 6.88548 92.4925 7.07694 92.4558 7.28639C92.4191 7.49586 92.3843 7.67497 92.3785 7.68442C92.3727 7.69387 92.2894 7.62565 92.1935 7.53285C91.7749 7.12761 91.1834 6.83705 90.5594 6.73016C90.3398 6.69254 89.8344 6.67975 89.6274 6.70657ZM98.139 6.72621C97.4956 6.8438 96.9485 7.11161 96.5245 7.51647C96.3999 7.63548 96.3182 7.69672 96.3106 7.6767C96.304 7.6589 96.2663 7.45803 96.227 7.23035L96.1555 6.81639H95.5481H94.9408V11.338V15.8597H95.6289H96.3169V14.0128C96.3169 12.997 96.3211 12.1659 96.3263 12.1659C96.3314 12.1659 96.4135 12.2411 96.5086 12.3329C96.845 12.6579 97.3379 12.93 97.8466 13.0718C98.0498 13.1284 98.1575 13.1412 98.526 13.1524C98.8049 13.1609 99.0401 13.1546 99.1734 13.1352C100.469 12.9458 101.457 11.9503 101.678 10.612C101.84 9.62972 101.66 8.69773 101.166 7.95427C101.099 7.85382 100.947 7.67408 100.828 7.55478C100.239 6.966 99.522 6.68515 98.6232 6.69147C98.455 6.69267 98.2371 6.70828 98.139 6.72621ZM105.109 6.73702C104.582 6.85292 104.143 7.14152 103.874 7.54877C103.835 7.6083 103.794 7.65704 103.784 7.65704C103.773 7.65704 103.757 7.6083 103.748 7.54877C103.739 7.48924 103.707 7.30009 103.677 7.12845L103.623 6.81639H103.015H102.407L102.414 9.93059L102.42 13.0448H103.108H103.796L103.809 11.0323L103.822 9.0199L103.9 8.80225C104.087 8.27957 104.422 7.98764 104.939 7.89512C105.542 7.78736 106.095 8.04918 106.354 8.56513C106.383 8.62324 106.433 8.75507 106.464 8.85809C106.521 9.04451 106.522 9.05469 106.53 11.0515L106.538 13.0575H107.225H107.912V11.1998C107.912 10.0427 107.922 9.26957 107.939 9.14992C108.013 8.61631 108.254 8.23491 108.644 8.03319C108.938 7.88144 109.234 7.83653 109.558 7.89463C109.842 7.94563 110.034 8.04256 110.222 8.22923C110.404 8.41066 110.515 8.61443 110.593 8.91171C110.648 9.11728 110.649 9.16408 110.658 11.0901L110.667 13.0583L111.347 13.0516L112.028 13.0448L112.036 11.1215C112.041 9.87491 112.033 9.08964 112.015 8.88962C111.907 7.69023 111.258 6.93166 110.163 6.7254C109.83 6.66273 109.238 6.68589 108.893 6.77497C108.402 6.90211 107.938 7.19738 107.695 7.53705C107.639 7.61572 107.586 7.68062 107.576 7.68129C107.566 7.68195 107.517 7.62053 107.467 7.5448C107.235 7.19636 106.833 6.91498 106.369 6.7766C106.056 6.68344 105.441 6.66408 105.109 6.73702ZM75.5149 8.86068C75.5075 10.4203 75.4974 10.9352 75.4724 11.0323C75.3537 11.4922 75.1008 11.7522 74.6896 11.8371L74.5356 11.8689L74.5217 12.4569C74.514 12.7802 74.514 13.055 74.5217 13.0675C74.5435 13.103 75.006 13.0635 75.2305 13.007C75.6523 12.9009 76.0797 12.6345 76.3273 12.3234C76.4789 12.1329 76.6792 11.7201 76.7437 11.4654C76.833 11.1125 76.8468 10.8401 76.847 9.42111L76.8472 8.03915H77.9429H79.0386L79.0451 10.542L79.0516 13.0448H79.7269H80.4022L80.4087 9.93059L80.4152 6.81639H77.9699H75.5246L75.5149 8.86068ZM81.5935 9.93059L81.6 13.0448H82.2626H82.9251L82.9317 11.5971C82.9353 10.8009 82.948 10.1532 82.9599 10.1578C82.9719 10.1624 83.559 10.8168 84.2648 11.6119L85.5479 13.0575H86.3198C86.7444 13.0575 87.0917 13.0479 87.0917 13.0362C87.0917 13.0245 86.8657 12.7637 86.5894 12.4567C85.5194 11.2677 84.4499 10.0821 84.2963 9.91475C84.2079 9.81848 84.1356 9.73121 84.1356 9.72082C84.1356 9.71042 84.8007 9.05645 85.6137 8.26755C86.4266 7.47862 87.0917 6.82938 87.0917 6.82477C87.0917 6.82016 86.738 6.81639 86.3056 6.81639H85.5195L84.251 8.04551C83.5533 8.72155 82.9724 9.27846 82.9602 9.28312C82.9476 9.28791 82.9379 8.75079 82.9379 8.054V6.81639H82.2625H81.587L81.5935 9.93059ZM71.3809 7.86266C71.7036 7.93959 71.9836 8.09127 72.1953 8.30392C72.4592 8.56893 72.6424 8.95316 72.6424 9.24178V9.33832H70.8705C69.4625 9.33832 69.096 9.33167 69.0861 9.306C69.0632 9.24639 69.1742 8.87905 69.271 8.69383C69.3883 8.46943 69.657 8.19352 69.8905 8.05759C70.3173 7.80922 70.8593 7.73832 71.3809 7.86266ZM90.7105 7.96446C91.6457 8.11595 92.2979 8.84278 92.3587 9.80164C92.411 10.6246 91.9931 11.3662 91.2847 11.7078C90.9268 11.8804 90.7195 11.9206 90.2683 11.905C89.9701 11.8947 89.8724 11.8809 89.7038 11.8256C89.0257 11.6029 88.5645 11.0967 88.4009 10.3955C88.3398 10.1336 88.3466 9.66296 88.4151 9.40201C88.5868 8.7488 89.0002 8.29445 89.6417 8.054C89.9177 7.95055 90.3835 7.91152 90.7105 7.96446ZM98.7761 7.98547C99.3986 8.11455 99.8673 8.46382 100.122 8.98805C100.298 9.35149 100.329 9.4932 100.329 9.92423C100.329 10.2325 100.32 10.327 100.271 10.4959C100.161 10.8825 99.9519 11.209 99.6499 11.4685C99.4613 11.6305 99.0563 11.8222 98.7911 11.8749C98.4918 11.9344 97.9569 11.9149 97.7058 11.8353C96.9337 11.5907 96.4276 10.9635 96.343 10.1466C96.2545 9.29132 96.6655 8.51523 97.4 8.15085C97.8084 7.94823 98.3073 7.88826 98.7761 7.98547ZM64.2199 8.17953C64.7194 8.31913 65.1499 8.67276 65.3671 9.12179C65.4975 9.39146 65.5372 9.56782 65.5509 9.93696C65.561 10.2122 65.5543 10.3051 65.5109 10.4871C65.2978 11.3812 64.6037 11.9125 63.6507 11.9108C62.9003 11.9094 62.2778 11.5466 61.9782 10.9359C61.826 10.6259 61.7843 10.4572 61.7688 10.0898C61.744 9.50385 61.9178 9.03065 62.297 8.65162C62.543 8.40567 62.8603 8.23443 63.2226 8.15205C63.4307 8.10474 64.0094 8.12069 64.2199 8.17953ZM9.55348 11.1071C9.46745 11.1267 9.32983 11.1749 9.24767 11.2144C9.06404 11.3026 8.78585 11.5721 8.70568 11.7394C8.56623 12.0304 8.57543 11.6617 8.54865 18.025C8.53499 21.2685 8.53058 23.9795 8.53881 24.0496C8.5816 24.4134 8.7578 24.7785 9.011 25.028C9.20993 25.224 9.39041 25.3384 9.6504 25.4334C9.83319 25.5001 9.85029 25.5016 10.4234 25.5008C11.0378 25.4999 11.3308 25.4752 11.9358 25.373C13.5461 25.101 15.0784 24.415 16.3657 23.3896C16.7972 23.0459 17.2305 22.6274 17.4301 22.3615C18.133 21.4253 18.2891 20.1763 17.8406 19.0765C17.6428 18.5917 17.4363 18.3154 16.7598 17.6301C15.9142 16.7737 11.3268 12.0939 10.9798 11.7336C10.6148 11.3548 10.4489 11.2252 10.2309 11.1487C10.0371 11.0807 9.74808 11.063 9.55348 11.1071ZM46.3812 14.8326C44.8289 14.9673 43.4465 15.4056 42.1382 16.1781C41.2533 16.7005 40.3677 17.4393 39.9547 17.9995C39.3321 18.8442 39.1559 20.0197 39.4989 21.0412C39.6352 21.4468 39.8703 21.8479 40.1683 22.1831C40.2636 22.2902 41.4531 23.5106 42.8117 24.895C47.1299 29.2952 46.9231 29.0957 47.2703 29.1959C47.4777 29.2558 47.8538 29.238 48.0587 29.1586C48.3924 29.0293 48.6835 28.7168 48.7898 28.3735C48.8427 28.2025 48.843 28.1799 48.8656 22.2719C48.8802 18.4508 48.8795 16.2875 48.8636 16.1886C48.7586 15.5373 48.2673 15.0022 47.6379 14.8539C47.4876 14.8185 46.6984 14.8052 46.3812 14.8326ZM90.0606 17.6089C89.5275 17.674 89.015 17.8595 88.6112 18.1334C88.5288 18.1893 88.3766 18.3156 88.273 18.414C88.1694 18.5123 88.0802 18.5883 88.0748 18.5827C88.0694 18.5772 88.0351 18.4064 87.9986 18.2033C87.9621 18.0001 87.9263 17.8081 87.9192 17.7766L87.9063 17.7193H87.3079H86.7095V22.1518V26.5843H87.3976H88.0856V24.7741V22.9639L88.256 23.1325C88.6578 23.5302 89.2378 23.8137 89.8788 23.9257C90.1808 23.9784 90.7788 23.9596 91.0927 23.8875C91.6497 23.7596 92.0984 23.5114 92.5017 23.1083C93.0783 22.532 93.3866 21.7179 93.3861 20.7729C93.3858 20.0467 93.2058 19.4104 92.8468 18.8656C92.5841 18.4671 92.0638 18.0303 91.634 17.8475C91.1766 17.6529 90.5178 17.553 90.0606 17.6089ZM82.0969 17.686C80.6815 17.8376 79.6314 18.8253 79.3804 20.2412C79.3176 20.5953 79.3242 21.1913 79.3948 21.549C79.6553 22.8689 80.6113 23.7659 81.9822 23.9768C82.3248 24.0295 82.9627 24.0105 83.2743 23.9382C83.9431 23.7831 84.5532 23.4128 84.9493 22.9215C85.1363 22.6896 85.3784 22.255 85.348 22.2058C85.3358 22.186 85.1422 22.1772 84.7166 22.1772H84.1028L83.8935 22.3781C83.5277 22.7292 83.1064 22.8905 82.5556 22.8905C81.8449 22.8905 81.2835 22.6018 80.9294 22.0541C80.8237 21.8907 80.7052 21.5654 80.6912 21.4003L80.6826 21.2984L83.1226 21.2919L85.5627 21.2854V21.068C85.5627 20.4447 85.4089 19.7523 85.1613 19.2605C84.7841 18.5115 84.1341 17.9852 83.3372 17.7836C82.9463 17.6847 82.464 17.6467 82.0969 17.686ZM103.621 17.7085C103.267 17.7634 103.03 17.8368 102.723 17.9865C101.849 18.4118 101.3 19.1428 101.077 20.1775C100.999 20.5406 100.999 21.1874 101.079 21.5591C101.343 22.7996 102.136 23.613 103.387 23.9257C103.745 24.0152 104.374 24.0375 104.754 23.9742C105.746 23.8082 106.56 23.2292 106.97 22.3965C107.014 22.3059 107.043 22.2195 107.034 22.2045C107.023 22.1864 106.812 22.1772 106.403 22.1772H105.79L105.579 22.3793C105.214 22.7298 104.79 22.8905 104.232 22.8905C103.647 22.8905 103.176 22.6992 102.817 22.3156C102.581 22.0629 102.401 21.6847 102.377 21.3875L102.369 21.2984L104.803 21.2856L107.237 21.2729L107.245 21.171C107.258 21.0088 107.202 20.4143 107.148 20.1577C106.891 18.9184 106.125 18.0621 105.024 17.7836C104.563 17.667 104.061 17.6401 103.621 17.7085ZM60.563 20.8399V23.884L61.13 23.8834L61.697 23.8827L61.9391 23.585C62.0723 23.4213 62.3699 23.0576 62.6005 22.7769C62.8311 22.4961 63.1986 22.0486 63.4172 21.7824C63.6359 21.5162 64.078 20.9776 64.3996 20.5855L64.9845 19.8727L64.9972 21.872L65.0099 23.8713L65.6152 23.8781L66.2204 23.8849V20.8398V17.7947L65.6542 17.8016L65.0879 17.8084L63.4562 19.8262C62.5587 20.936 61.8159 21.8445 61.8054 21.8451C61.7949 21.8456 61.7862 20.9347 61.7862 19.8209V17.7957H61.1746H60.563V20.8399ZM67.3735 20.8335L67.38 23.8713L67.9852 23.8781L68.5904 23.8849V22.7889V21.6928L70.1258 21.6994L71.6612 21.706L71.6679 22.795L71.6745 23.884H72.2731H72.8717V20.8399V17.7957H72.2729H71.674V19.0949V20.3941H70.1322H68.5904V19.0949V17.7957H67.9787H67.367L67.3735 20.8335ZM73.7892 18.3307V18.8656H74.7703H75.7514V21.3748V23.884H76.414H77.0766V21.3748V18.8656H78.045H79.0134V18.3307V17.7957H76.4013H73.7892V18.3307ZM94.4821 20.8403V23.8849L95.0873 23.8781L95.6926 23.8713L95.6992 22.7822L95.7058 21.6932H97.2343H98.7628L98.7695 22.7822L98.7761 23.8713H99.375H99.9739L99.9803 20.8335L99.9868 17.7957H99.3751H98.7634V19.0949V20.3941H97.2343H95.7053V19.0949V17.7957H95.0937H94.4821V20.8403ZM107.638 18.3243L107.645 18.8529L108.619 18.8596L109.594 18.8662V21.3751V23.884H110.256H110.919L110.925 21.3812L110.932 18.8784L111.9 18.8656L112.869 18.8529L112.876 18.3243L112.882 17.7957H110.257H107.631L107.638 18.3243ZM82.9761 18.828C83.2759 18.9112 83.4961 19.0391 83.7181 19.2592C83.9979 19.5365 84.1611 19.8722 84.1611 20.1703V20.267L82.4218 20.2605L80.6826 20.2539L80.6901 20.1648C80.7018 20.0282 80.7927 19.7601 80.8801 19.6044C81.0433 19.3139 81.4275 18.9994 81.77 18.876C82.0948 18.7588 82.6473 18.7369 82.9761 18.828ZM104.467 18.7902C104.85 18.8524 105.136 18.9959 105.405 19.2605C105.65 19.5023 105.782 19.742 105.833 20.0394C105.851 20.1434 105.861 20.2371 105.855 20.2476C105.841 20.2738 102.388 20.2719 102.372 20.2457C102.365 20.2342 102.375 20.1475 102.395 20.053C102.525 19.4341 103.056 18.9363 103.729 18.8022C103.938 18.7607 104.253 18.7555 104.467 18.7902ZM90.5283 18.8798C91.1756 19.0289 91.6705 19.4504 91.8935 20.0425C91.9812 20.2754 92.0143 20.4888 92.0129 20.8127C92.0114 21.1601 91.9514 21.4168 91.8011 21.7187C91.6597 22.0027 91.323 22.3491 91.0545 22.487C90.2277 22.9113 89.2541 22.786 88.644 22.1766C87.9916 21.525 87.9011 20.4035 88.438 19.6235C88.5622 19.4431 88.8747 19.1657 89.0668 19.0654C89.5103 18.8337 90.0377 18.7667 90.5283 18.8798ZM38.3433 26.5618C36.9564 26.7225 35.8159 27.7186 35.4734 29.0682C35.3786 29.4417 35.3631 29.805 35.3474 32.0102C35.3394 33.1381 35.3206 35.2105 35.3056 36.6155C35.2753 39.445 35.2727 39.3849 35.4359 39.6699C35.5271 39.8293 35.7276 40.0347 35.8779 40.1227C36.2857 40.3616 36.8213 40.3586 37.1881 40.1152C37.2851 40.0509 39.6889 37.6755 44.2452 33.1414L45.8043 31.5899L45.9072 31.3734C46.1429 30.8774 46.1422 30.3851 45.9052 29.8959C45.8118 29.7032 45.7621 29.6413 45.4537 29.334C43.8101 27.6963 41.6122 26.7181 39.2203 26.5594C38.7832 26.5304 38.6097 26.5309 38.3433 26.5618ZM9.4678 26.7715C9.26052 26.833 9.07517 26.9456 8.9199 27.1042C8.73968 27.2884 8.63741 27.4849 8.58237 27.7527C8.53028 28.0063 8.56445 28.2699 8.68114 28.515C8.75642 28.673 8.91121 28.8358 10.7323 30.6728C11.8156 31.7657 13.726 33.6879 14.9775 34.9446C17.46 37.437 17.346 37.3343 17.7756 37.4645C17.9206 37.5084 18.0281 37.5222 18.2215 37.5217C18.5329 37.5209 18.7296 37.4726 19.008 37.3284C19.1776 37.2405 19.2701 37.166 19.5154 36.9201C20.8289 35.603 21.7641 33.8499 22.1338 32.0116C22.2629 31.3693 22.356 30.382 22.3248 29.985C22.2566 29.1168 21.9319 28.3951 21.3441 27.8053C20.7336 27.1928 19.9639 26.862 19.0625 26.8249C18.8943 26.8179 17.3863 26.8011 15.7114 26.7874C14.0364 26.7737 11.9722 26.7569 11.1243 26.75C9.88345 26.7399 9.56011 26.7441 9.4678 26.7715ZM78.5419 28.5719C77.8986 28.6401 77.2509 28.9345 76.7746 29.3754C76.6733 29.4691 76.5867 29.5415 76.5822 29.5362C76.5776 29.5308 76.5408 29.3374 76.5003 29.1062L76.4267 28.6859L75.8342 28.679L75.2417 28.6722V33.1183V37.5644L75.9107 37.5576L76.5796 37.5508L76.5862 35.7326L76.5927 33.9143L76.7901 34.1026C77.3497 34.6365 78.067 34.9143 78.8859 34.9143C79.712 34.9143 80.3838 34.6619 80.9399 34.1428C81.4169 33.6975 81.741 33.0709 81.8559 32.3721C81.9106 32.0394 81.896 31.2376 81.8298 30.9403C81.6963 30.3411 81.4387 29.8513 81.0413 29.4416C80.7124 29.1024 80.4061 28.9003 79.975 28.7381C79.6036 28.5984 78.9774 28.5258 78.5419 28.5719ZM85.3588 28.6601C85.0891 28.7111 84.7486 28.8133 84.5536 28.9016C83.6012 29.3333 82.9359 30.1941 82.7715 31.2072C82.7231 31.5057 82.7233 32.0952 82.772 32.3742C82.848 32.8097 83.0267 33.2562 83.2695 33.6172C83.5089 33.9731 84.0012 34.3994 84.4125 34.6069C84.6729 34.7382 85.1417 34.8822 85.4608 34.9288C85.9902 35.0061 86.6564 34.9505 87.1427 34.7883C87.4139 34.6979 87.8078 34.495 88.0236 34.3345C88.5946 33.9099 88.9779 33.3331 89.175 32.602C89.2369 32.3721 89.2419 32.3144 89.2435 31.8064C89.245 31.2929 89.2409 31.2421 89.1768 30.9913C88.8796 29.8271 88.0767 29.0277 86.8943 28.7187C86.6153 28.6459 86.5591 28.6399 86.0724 28.6322C85.6971 28.6263 85.4961 28.6341 85.3588 28.6601ZM69.6387 28.6886C68.4806 28.8826 67.5815 29.7557 67.3007 30.959C67.2052 31.3686 67.1883 32.0085 67.2618 32.4374C67.3863 33.164 67.6794 33.7348 68.1625 34.1915C68.4915 34.5024 68.8157 34.693 69.253 34.8325C69.6077 34.9457 69.8515 34.9738 70.3444 34.9582C70.6929 34.9471 70.811 34.9331 71.0009 34.8801C71.5008 34.7408 71.9632 34.4873 72.3043 34.1656C72.4025 34.073 72.4901 33.9972 72.499 33.9972C72.5078 33.9972 72.515 34.1923 72.515 34.4307V34.8642L73.1839 34.8574L73.8529 34.8506V31.8064V28.7623L73.2766 28.7555C72.8345 28.7502 72.6946 28.7561 72.6758 28.7809C72.6623 28.7987 72.6201 28.9963 72.5819 29.2199C72.5437 29.4436 72.5097 29.6295 72.5062 29.6329C72.5028 29.6363 72.419 29.5613 72.32 29.4662C71.9073 29.0697 71.3424 28.7909 70.7385 28.6856C70.4691 28.6387 69.9278 28.6401 69.6387 28.6886ZM60.5801 28.7409C60.5707 28.7503 60.563 30.126 60.563 31.7979V34.8378H61.2511H61.9391V32.3286V29.8195H63.379H64.8188V32.3286V34.8378H65.507H66.1952L66.1887 31.7873L66.1822 28.7368L63.3897 28.7303C61.8538 28.7268 60.5895 28.7315 60.5801 28.7409ZM90.9653 30.6993C90.9653 32.3924 90.9596 32.7023 90.9254 32.8677C90.8249 33.3541 90.5866 33.6167 90.1689 33.7016L90.0097 33.7339L89.9937 33.9102C89.9849 34.0071 89.9763 34.2801 89.9746 34.5169L89.9714 34.9474L90.2326 34.932C90.5699 34.9122 90.8451 34.8409 91.1309 34.6992C91.5391 34.497 91.8081 34.2236 92.0095 33.8061C92.2691 33.2683 92.2905 33.0809 92.2905 31.3461V29.9468H93.3863H94.4821V32.431V34.9151L95.151 34.9083L95.82 34.9015V31.8192V28.7368L93.3926 28.7303L90.9653 28.7238V30.6993ZM97.0224 28.7406C97.0128 28.7502 97.005 30.1266 97.005 31.7992V34.8404L98.5404 34.832L100.076 34.8235L100.331 34.7543C101.191 34.5209 101.729 33.9849 101.887 33.2035C101.939 32.9487 101.926 32.3817 101.863 32.1503C101.803 31.9313 101.64 31.6144 101.497 31.4377C101.165 31.0265 100.619 30.7525 99.9529 30.6618C99.8433 30.6469 99.4105 30.6346 98.9912 30.6346H98.2288L98.2221 29.6857L98.2155 28.7368L97.6277 28.73C97.3044 28.7262 97.032 28.731 97.0224 28.7406ZM78.8723 29.8083C79.0819 29.8306 79.32 29.9074 79.5613 30.0304C79.8676 30.1867 80.1673 30.4959 80.3225 30.8155C80.5085 31.199 80.5769 31.6158 80.5197 32.0185C80.3701 33.0723 79.5335 33.7404 78.4331 33.6849C77.46 33.6358 76.7442 32.9644 76.6128 31.9775C76.5575 31.5624 76.6596 31.0707 76.8785 30.6983C77.01 30.4745 77.2938 30.1886 77.5086 30.0636C77.7244 29.9379 78.0758 29.822 78.3203 29.7958C78.5136 29.7751 78.5718 29.7764 78.8723 29.8083ZM86.4952 29.8957C86.6061 29.9237 86.7942 29.9942 86.9134 30.0523C87.2108 30.1976 87.5427 30.5265 87.6993 30.8311C88.0179 31.4506 87.9979 32.2514 87.6493 32.8438C87.5114 33.078 87.1907 33.3821 86.9516 33.5053C86.5958 33.6887 86.4211 33.7297 85.9959 33.7297C85.6798 33.7297 85.5988 33.721 85.4353 33.67C84.6862 33.4362 84.1964 32.8611 84.0824 32.0817C84.0208 31.661 84.0969 31.2117 84.295 30.8264C84.449 30.5268 84.7832 30.1966 85.0785 30.0523C85.393 29.8986 85.6156 29.848 85.9855 29.8463C86.2127 29.8453 86.3465 29.8583 86.4952 29.8957ZM71.1006 29.9335C71.1847 29.9565 71.351 30.023 71.4701 30.0811C71.6448 30.1664 71.7317 30.2315 71.919 30.4172C72.117 30.6134 72.1687 30.6831 72.2693 30.8894C72.4153 31.1888 72.4629 31.3669 72.4819 31.6845C72.54 32.653 71.9703 33.4525 71.0496 33.6944C70.7647 33.7693 70.2909 33.7688 70.0048 33.6933C69.447 33.5461 69.0215 33.2046 68.7805 32.7108C68.6258 32.3938 68.5818 32.1938 68.5813 31.8064C68.5809 31.4243 68.6237 31.231 68.7818 30.901C69.0244 30.3949 69.5047 30.031 70.094 29.907C70.3126 29.8609 70.8914 29.8762 71.1006 29.9335ZM28.517 30.7917C27.9283 30.8581 27.3428 31.0964 26.8671 31.4631C26.7193 31.577 23.8892 34.3311 21.3051 36.8756C20.8706 37.3035 20.3796 37.7852 20.214 37.9461C19.7469 38.4 19.6298 38.62 19.6309 39.0411C19.6324 39.5662 19.9408 40.0268 20.4176 40.2156L20.566 40.2744L22.6939 40.2913C23.8643 40.3006 26.5879 40.3113 28.7464 40.3151C33.1572 40.3229 32.8024 40.3377 33.2037 40.1293C33.5605 39.9441 33.865 39.5772 33.9905 39.1812C34.0425 39.0171 34.0469 38.9541 34.0459 38.3915C34.0431 36.926 33.7047 35.5511 33.0015 34.1484C32.5259 33.1998 31.7029 32.0968 31.0736 31.5649C30.3604 30.9619 29.4495 30.6864 28.517 30.7917ZM99.8558 31.8164C100.229 31.9126 100.521 32.124 100.645 32.3876C100.701 32.5067 100.713 32.5687 100.713 32.7368C100.713 32.9169 100.703 32.9615 100.628 33.1136C100.532 33.3085 100.373 33.454 100.143 33.5562C99.8647 33.68 99.7386 33.6964 98.9609 33.7099L98.2282 33.7226V32.7365V31.7503L98.9609 31.7625C99.5257 31.7718 99.7307 31.7842 99.8558 31.8164Z" fill="#5756CE"/>
</g>
<g clip-path="url(#clip1_3111_1160)">
<path fill-rule="evenodd" clip-rule="evenodd" d="M24.6479 0.0283493C24.0571 0.146982 23.5605 0.626811 23.4068 1.22762C23.3675 1.38105 23.3565 1.50928 23.3565 1.81342C23.3565 4.24122 24.3417 6.69802 26.0114 8.43425C26.3384 8.77425 26.5717 8.95894 26.9104 9.14599C27.3888 9.41024 27.9417 9.548 28.517 9.54632C29.1863 9.54436 29.8111 9.35715 30.3645 8.99272C30.6253 8.82097 30.7137 8.73739 32.7856 6.70367C33.8578 5.65118 35.3486 4.18892 36.0985 3.4542C36.8483 2.7195 37.4949 2.07781 37.5354 2.02824C37.5758 1.97867 37.6446 1.8636 37.6883 1.77253C37.7646 1.61342 37.7677 1.59403 37.7677 1.27579C37.7677 0.945822 37.7673 0.943912 37.6724 0.745112C37.5107 0.406664 37.1925 0.142448 36.8559 0.0670189C36.6539 0.0218025 36.0062 0.0155614 30.3519 0.00435278C25.7365 -0.00476692 24.7931 -0.000818447 24.6479 0.0283493ZM17.5335 2.00106C16.5083 2.14807 15.6398 2.76199 15.1902 3.65761C14.9417 4.15252 14.8727 4.47255 14.8526 5.22426L14.8375 5.78469L14.6746 5.85882C13.9239 6.20025 13.3606 6.92715 13.203 7.75768C13.1455 8.06065 13.1443 10.1515 13.2015 10.4528C13.396 11.478 14.1335 12.2709 15.1437 12.5408C15.377 12.6031 15.4366 12.608 16.0809 12.6172C16.7343 12.6265 16.773 12.6244 16.8504 12.576C16.8952 12.548 16.9493 12.4984 16.9707 12.4657C16.9949 12.4287 17.0576 12.0773 17.1379 11.5284C17.2086 11.0454 17.2993 10.4268 17.3396 10.1536C17.3844 9.84964 17.4048 9.63601 17.3921 9.60279C17.3808 9.57296 17.3311 9.52357 17.2816 9.493C17.1454 9.40889 16.9709 9.20092 16.8778 9.0119C16.7982 8.85042 16.7944 8.82917 16.7944 8.54916C16.7944 8.2718 16.7989 8.24622 16.876 8.0835C17.0944 7.62257 17.6106 7.34106 18.0848 7.42428C18.741 7.53945 19.1807 8.19724 19.0151 8.8161C18.9409 9.09329 18.8016 9.28939 18.5171 9.5171L18.4051 9.60669L18.4487 9.91195C18.6796 11.5296 18.8228 12.4261 18.8589 12.4813C18.9499 12.62 19.0176 12.6303 19.7595 12.6182C20.3436 12.6087 20.4655 12.5997 20.6305 12.5546C21.1562 12.4107 21.5647 12.1775 21.9153 11.821C22.2472 11.4836 22.4648 11.0922 22.5958 10.5966C22.6549 10.3732 22.6557 10.3524 22.6552 9.10906L22.6546 7.84809L22.5851 7.59335C22.3731 6.81718 21.8286 6.16466 21.1278 5.84703L20.967 5.77415L20.9547 5.18078C20.9437 4.65067 20.9355 4.56138 20.8778 4.34324C20.5601 3.14204 19.6856 2.29437 18.5015 2.03981C18.2837 1.99298 17.7413 1.97128 17.5335 2.00106ZM18.1509 2.66606C19.1565 2.77814 19.9546 3.48092 20.2266 4.4938C20.267 4.64442 20.282 4.79602 20.2919 5.15421L20.3047 5.61911H17.9162H15.5276L15.5391 5.116C15.5494 4.66338 15.5573 4.59042 15.6184 4.38902C15.7472 3.96406 15.9561 3.61881 16.2634 3.32324C16.6494 2.95195 17.1431 2.7191 17.6602 2.66448C17.7587 2.65409 17.854 2.644 17.8721 2.64211C17.8902 2.6402 18.0156 2.65098 18.1509 2.66606ZM38.8252 2.82955C38.7341 2.84996 38.5621 2.91441 38.443 2.97274C38.25 3.06725 38.1874 3.11799 37.8687 3.43825C36.4007 4.91371 35.4373 6.90181 35.1701 9.00716C35.1073 9.50253 35.0791 10.1302 35.106 10.4366C35.2234 11.775 36.1099 12.9005 37.3813 13.3253C37.876 13.4906 37.8578 13.4895 40.4944 13.5167C46.7991 13.5818 47.7383 13.5882 47.8466 13.5671C48.2425 13.4896 48.5489 13.2561 48.7246 12.8978C48.9044 12.5311 48.9044 12.1529 48.7247 11.7894C48.6379 11.6139 48.5094 11.4795 46.362 9.31835C41.7886 4.71568 40.2117 3.14416 40.0751 3.05296C39.8501 2.90274 39.5468 2.81052 39.2457 2.80071C39.0855 2.79552 38.9294 2.80622 38.8252 2.82955ZM64.8159 4.20469C63.0601 4.42769 62.9097 4.46127 62.3459 4.75603C61.2201 5.34453 60.5457 6.48854 60.4106 8.03915C60.3772 8.42189 60.3773 9.81963 60.4107 10.1572C60.501 11.0692 60.8213 11.7776 61.3838 12.3093C61.8127 12.7147 62.3663 12.9877 62.985 13.0991C63.3123 13.158 64.0048 13.1579 64.3285 13.0989C65.8983 12.8127 66.9083 11.6047 66.9083 10.0134C66.9083 8.62525 66.1616 7.53629 64.926 7.12249C64.2539 6.8974 63.3612 6.90843 62.7591 7.14929C62.3805 7.30073 62.003 7.60762 61.8245 7.90905C61.7824 7.98005 61.7391 8.03836 61.7282 8.03864C61.6696 8.04014 61.8006 7.30035 61.9137 6.99036C62.1845 6.24886 62.6648 5.80326 63.4333 5.58062C63.6359 5.52195 64.0838 5.46069 65.6598 5.27605C65.9611 5.24075 66.2452 5.20549 66.291 5.19772L66.3743 5.18356L66.3675 4.6056C66.3616 4.11441 66.3549 4.02693 66.3224 4.02293C66.3013 4.02031 65.6234 4.10211 64.8159 4.20469ZM70.4508 6.70604C70.0388 6.77125 69.7039 6.87124 69.4187 7.01422C68.5497 7.44983 67.9811 8.22032 67.7577 9.26508C67.6945 9.56013 67.6943 10.3029 67.7573 10.6174C67.8877 11.2688 68.1773 11.8266 68.6096 12.2586C69.0541 12.703 69.7148 13.0216 70.4017 13.1228C70.7476 13.1738 71.3994 13.1603 71.6867 13.0963C72.5942 12.894 73.3407 12.3513 73.7317 11.6096C73.7883 11.5023 73.8424 11.3887 73.8518 11.3571L73.869 11.2998H73.2058H72.5426L72.4715 11.3911C72.3689 11.5228 72.0772 11.7458 71.892 11.8341C71.3567 12.0895 70.5279 12.072 70.021 11.7947C69.5923 11.5601 69.2983 11.2146 69.1663 10.7903C69.1336 10.6853 69.0995 10.5506 69.0905 10.4912L69.0741 10.383L71.5654 10.3765L74.0567 10.37L74.0648 10.2044C74.0692 10.1134 74.0602 9.90703 74.0447 9.74591C73.8797 8.03135 72.9331 6.94644 71.4015 6.71653C71.2298 6.69075 70.5918 6.68372 70.4508 6.70604ZM89.6274 6.70657C89.4228 6.73307 89.1219 6.80429 88.9266 6.87244C87.9203 7.22357 87.1745 8.17204 87.0044 9.31698C86.9581 9.6288 86.952 10.1886 86.9918 10.4747C87.1421 11.5547 87.7326 12.4111 88.6335 12.8557C89.0787 13.0753 89.3372 13.1366 89.887 13.1529C90.4076 13.1682 90.6441 13.1397 91.0126 13.0174C91.4832 12.8612 91.9446 12.5846 92.2384 12.2827C92.3009 12.2185 92.3611 12.1659 92.3722 12.1659C92.3833 12.1659 92.3924 12.3667 92.3924 12.6121V13.0584L93.0741 13.0516L93.7558 13.0448L93.7623 9.93059L93.7687 6.81639H93.1587C92.5998 6.81639 92.5477 6.82011 92.5356 6.86097C92.5284 6.88548 92.4925 7.07694 92.4558 7.28639C92.4191 7.49586 92.3843 7.67497 92.3785 7.68442C92.3727 7.69387 92.2894 7.62565 92.1935 7.53285C91.7749 7.12761 91.1834 6.83705 90.5594 6.73016C90.3398 6.69254 89.8344 6.67975 89.6274 6.70657ZM98.139 6.72621C97.4956 6.8438 96.9485 7.11161 96.5245 7.51647C96.3999 7.63548 96.3182 7.69672 96.3106 7.6767C96.304 7.6589 96.2663 7.45803 96.227 7.23035L96.1555 6.81639H95.5481H94.9408V11.338V15.8597H95.6289H96.3169V14.0128C96.3169 12.997 96.3211 12.1659 96.3263 12.1659C96.3314 12.1659 96.4135 12.2411 96.5086 12.3329C96.845 12.6579 97.3379 12.93 97.8466 13.0718C98.0498 13.1284 98.1575 13.1412 98.526 13.1524C98.8049 13.1609 99.0401 13.1546 99.1734 13.1352C100.469 12.9458 101.457 11.9503 101.678 10.612C101.84 9.62972 101.66 8.69773 101.166 7.95427C101.099 7.85382 100.947 7.67408 100.828 7.55478C100.239 6.966 99.522 6.68515 98.6232 6.69147C98.455 6.69267 98.2371 6.70828 98.139 6.72621ZM105.109 6.73702C104.582 6.85292 104.143 7.14152 103.874 7.54877C103.835 7.6083 103.794 7.65704 103.784 7.65704C103.773 7.65704 103.757 7.6083 103.748 7.54877C103.739 7.48924 103.707 7.30009 103.677 7.12845L103.623 6.81639H103.015H102.407L102.414 9.93059L102.42 13.0448H103.108H103.796L103.809 11.0323L103.822 9.0199L103.9 8.80225C104.087 8.27957 104.422 7.98764 104.939 7.89512C105.542 7.78736 106.095 8.04918 106.354 8.56513C106.383 8.62324 106.433 8.75507 106.464 8.85809C106.521 9.04451 106.522 9.05469 106.53 11.0515L106.538 13.0575H107.225H107.912V11.1998C107.912 10.0427 107.922 9.26957 107.939 9.14992C108.013 8.61631 108.254 8.23491 108.644 8.03319C108.938 7.88144 109.234 7.83653 109.558 7.89463C109.842 7.94563 110.034 8.04256 110.222 8.22923C110.404 8.41066 110.515 8.61443 110.593 8.91171C110.648 9.11728 110.649 9.16408 110.658 11.0901L110.667 13.0583L111.347 13.0516L112.028 13.0448L112.036 11.1215C112.041 9.87491 112.033 9.08964 112.015 8.88962C111.907 7.69023 111.258 6.93166 110.163 6.7254C109.83 6.66273 109.238 6.68589 108.893 6.77497C108.402 6.90211 107.938 7.19738 107.695 7.53705C107.639 7.61572 107.586 7.68062 107.576 7.68129C107.566 7.68195 107.517 7.62053 107.467 7.5448C107.235 7.19636 106.833 6.91498 106.369 6.7766C106.056 6.68344 105.441 6.66408 105.109 6.73702ZM75.5149 8.86068C75.5075 10.4203 75.4974 10.9352 75.4724 11.0323C75.3537 11.4922 75.1008 11.7522 74.6896 11.8371L74.5356 11.8689L74.5217 12.4569C74.514 12.7802 74.514 13.055 74.5217 13.0675C74.5435 13.103 75.006 13.0635 75.2305 13.007C75.6523 12.9009 76.0797 12.6345 76.3273 12.3234C76.4789 12.1329 76.6792 11.7201 76.7437 11.4654C76.833 11.1125 76.8468 10.8401 76.847 9.42111L76.8472 8.03915H77.9429H79.0386L79.0451 10.542L79.0516 13.0448H79.7269H80.4022L80.4087 9.93059L80.4152 6.81639H77.9699H75.5246L75.5149 8.86068ZM81.5935 9.93059L81.6 13.0448H82.2626H82.9251L82.9317 11.5971C82.9353 10.8009 82.948 10.1532 82.9599 10.1578C82.9719 10.1624 83.559 10.8168 84.2648 11.6119L85.5479 13.0575H86.3198C86.7444 13.0575 87.0917 13.0479 87.0917 13.0362C87.0917 13.0245 86.8657 12.7637 86.5894 12.4567C85.5194 11.2677 84.4499 10.0821 84.2963 9.91475C84.2079 9.81848 84.1356 9.73121 84.1356 9.72082C84.1356 9.71042 84.8007 9.05645 85.6137 8.26755C86.4266 7.47862 87.0917 6.82938 87.0917 6.82477C87.0917 6.82016 86.738 6.81639 86.3056 6.81639H85.5195L84.251 8.04551C83.5533 8.72155 82.9724 9.27846 82.9602 9.28312C82.9476 9.28791 82.9379 8.75079 82.9379 8.054V6.81639H82.2625H81.587L81.5935 9.93059ZM71.3809 7.86266C71.7036 7.93959 71.9836 8.09127 72.1953 8.30392C72.4592 8.56893 72.6424 8.95316 72.6424 9.24178V9.33832H70.8705C69.4625 9.33832 69.096 9.33167 69.0861 9.306C69.0632 9.24639 69.1742 8.87905 69.271 8.69383C69.3883 8.46943 69.657 8.19352 69.8905 8.05759C70.3173 7.80922 70.8593 7.73832 71.3809 7.86266ZM90.7105 7.96446C91.6457 8.11595 92.2979 8.84278 92.3587 9.80164C92.411 10.6246 91.9931 11.3662 91.2847 11.7078C90.9268 11.8804 90.7195 11.9206 90.2683 11.905C89.9701 11.8947 89.8724 11.8809 89.7038 11.8256C89.0257 11.6029 88.5645 11.0967 88.4009 10.3955C88.3398 10.1336 88.3466 9.66296 88.4151 9.40201C88.5868 8.7488 89.0002 8.29445 89.6417 8.054C89.9177 7.95055 90.3835 7.91152 90.7105 7.96446ZM98.7761 7.98547C99.3986 8.11455 99.8673 8.46382 100.122 8.98805C100.298 9.35149 100.329 9.4932 100.329 9.92423C100.329 10.2325 100.32 10.327 100.271 10.4959C100.161 10.8825 99.9519 11.209 99.6499 11.4685C99.4613 11.6305 99.0563 11.8222 98.7911 11.8749C98.4918 11.9344 97.9569 11.9149 97.7058 11.8353C96.9337 11.5907 96.4276 10.9635 96.343 10.1466C96.2545 9.29132 96.6655 8.51523 97.4 8.15085C97.8084 7.94823 98.3073 7.88826 98.7761 7.98547ZM64.2199 8.17953C64.7194 8.31913 65.1499 8.67276 65.3671 9.12179C65.4975 9.39146 65.5372 9.56782 65.5509 9.93696C65.561 10.2122 65.5543 10.3051 65.5109 10.4871C65.2978 11.3812 64.6037 11.9125 63.6507 11.9108C62.9003 11.9094 62.2778 11.5466 61.9782 10.9359C61.826 10.6259 61.7843 10.4572 61.7688 10.0898C61.744 9.50385 61.9178 9.03065 62.297 8.65162C62.543 8.40567 62.8603 8.23443 63.2226 8.15205C63.4307 8.10474 64.0094 8.12069 64.2199 8.17953ZM9.55348 11.1071C9.46745 11.1267 9.32983 11.1749 9.24767 11.2144C9.06404 11.3026 8.78585 11.5721 8.70568 11.7394C8.56623 12.0304 8.57543 11.6617 8.54865 18.025C8.53499 21.2685 8.53058 23.9795 8.53881 24.0496C8.5816 24.4134 8.7578 24.7785 9.011 25.028C9.20993 25.224 9.39041 25.3384 9.6504 25.4334C9.83319 25.5001 9.85029 25.5016 10.4234 25.5008C11.0378 25.4999 11.3308 25.4752 11.9358 25.373C13.5461 25.101 15.0784 24.415 16.3657 23.3896C16.7972 23.0459 17.2305 22.6274 17.4301 22.3615C18.133 21.4253 18.2891 20.1763 17.8406 19.0765C17.6428 18.5917 17.4363 18.3154 16.7598 17.6301C15.9142 16.7737 11.3268 12.0939 10.9798 11.7336C10.6148 11.3548 10.4489 11.2252 10.2309 11.1487C10.0371 11.0807 9.74808 11.063 9.55348 11.1071ZM46.3812 14.8326C44.8289 14.9673 43.4465 15.4056 42.1382 16.1781C41.2533 16.7005 40.3677 17.4393 39.9547 17.9995C39.3321 18.8442 39.1559 20.0197 39.4989 21.0412C39.6352 21.4468 39.8703 21.8479 40.1683 22.1831C40.2636 22.2902 41.4531 23.5106 42.8117 24.895C47.1299 29.2952 46.9231 29.0957 47.2703 29.1959C47.4777 29.2558 47.8538 29.238 48.0587 29.1586C48.3924 29.0293 48.6835 28.7168 48.7898 28.3735C48.8427 28.2025 48.843 28.1799 48.8656 22.2719C48.8802 18.4508 48.8795 16.2875 48.8636 16.1886C48.7586 15.5373 48.2673 15.0022 47.6379 14.8539C47.4876 14.8185 46.6984 14.8052 46.3812 14.8326ZM90.0606 17.6089C89.5275 17.674 89.015 17.8595 88.6112 18.1334C88.5288 18.1893 88.3766 18.3156 88.273 18.414C88.1694 18.5123 88.0802 18.5883 88.0748 18.5827C88.0694 18.5772 88.0351 18.4064 87.9986 18.2033C87.9621 18.0001 87.9263 17.8081 87.9192 17.7766L87.9063 17.7193H87.3079H86.7095V22.1518V26.5843H87.3976H88.0856V24.7741V22.9639L88.256 23.1325C88.6578 23.5302 89.2378 23.8137 89.8788 23.9257C90.1808 23.9784 90.7788 23.9596 91.0927 23.8875C91.6497 23.7596 92.0984 23.5114 92.5017 23.1083C93.0783 22.532 93.3866 21.7179 93.3861 20.7729C93.3858 20.0467 93.2058 19.4104 92.8468 18.8656C92.5841 18.4671 92.0638 18.0303 91.634 17.8475C91.1766 17.6529 90.5178 17.553 90.0606 17.6089ZM82.0969 17.686C80.6815 17.8376 79.6314 18.8253 79.3804 20.2412C79.3176 20.5953 79.3242 21.1913 79.3948 21.549C79.6553 22.8689 80.6113 23.7659 81.9822 23.9768C82.3248 24.0295 82.9627 24.0105 83.2743 23.9382C83.9431 23.7831 84.5532 23.4128 84.9493 22.9215C85.1363 22.6896 85.3784 22.255 85.348 22.2058C85.3358 22.186 85.1422 22.1772 84.7166 22.1772H84.1028L83.8935 22.3781C83.5277 22.7292 83.1064 22.8905 82.5556 22.8905C81.8449 22.8905 81.2835 22.6018 80.9294 22.0541C80.8237 21.8907 80.7052 21.5654 80.6912 21.4003L80.6826 21.2984L83.1226 21.2919L85.5627 21.2854V21.068C85.5627 20.4447 85.4089 19.7523 85.1613 19.2605C84.7841 18.5115 84.1341 17.9852 83.3372 17.7836C82.9463 17.6847 82.464 17.6467 82.0969 17.686ZM103.621 17.7085C103.267 17.7634 103.03 17.8368 102.723 17.9865C101.849 18.4118 101.3 19.1428 101.077 20.1775C100.999 20.5406 100.999 21.1874 101.079 21.5591C101.343 22.7996 102.136 23.613 103.387 23.9257C103.745 24.0152 104.374 24.0375 104.754 23.9742C105.746 23.8082 106.56 23.2292 106.97 22.3965C107.014 22.3059 107.043 22.2195 107.034 22.2045C107.023 22.1864 106.812 22.1772 106.403 22.1772H105.79L105.579 22.3793C105.214 22.7298 104.79 22.8905 104.232 22.8905C103.647 22.8905 103.176 22.6992 102.817 22.3156C102.581 22.0629 102.401 21.6847 102.377 21.3875L102.369 21.2984L104.803 21.2856L107.237 21.2729L107.245 21.171C107.258 21.0088 107.202 20.4143 107.148 20.1577C106.891 18.9184 106.125 18.0621 105.024 17.7836C104.563 17.667 104.061 17.6401 103.621 17.7085ZM60.563 20.8399V23.884L61.13 23.8834L61.697 23.8827L61.9391 23.585C62.0723 23.4213 62.3699 23.0576 62.6005 22.7769C62.8311 22.4961 63.1986 22.0486 63.4172 21.7824C63.6359 21.5162 64.078 20.9776 64.3996 20.5855L64.9845 19.8727L64.9972 21.872L65.0099 23.8713L65.6152 23.8781L66.2204 23.8849V20.8398V17.7947L65.6542 17.8016L65.0879 17.8084L63.4562 19.8262C62.5587 20.936 61.8159 21.8445 61.8054 21.8451C61.7949 21.8456 61.7862 20.9347 61.7862 19.8209V17.7957H61.1746H60.563V20.8399ZM67.3735 20.8335L67.38 23.8713L67.9852 23.8781L68.5904 23.8849V22.7889V21.6928L70.1258 21.6994L71.6612 21.706L71.6679 22.795L71.6745 23.884H72.2731H72.8717V20.8399V17.7957H72.2729H71.674V19.0949V20.3941H70.1322H68.5904V19.0949V17.7957H67.9787H67.367L67.3735 20.8335ZM73.7892 18.3307V18.8656H74.7703H75.7514V21.3748V23.884H76.414H77.0766V21.3748V18.8656H78.045H79.0134V18.3307V17.7957H76.4013H73.7892V18.3307ZM94.4821 20.8403V23.8849L95.0873 23.8781L95.6926 23.8713L95.6992 22.7822L95.7058 21.6932H97.2343H98.7628L98.7695 22.7822L98.7761 23.8713H99.375H99.9739L99.9803 20.8335L99.9868 17.7957H99.3751H98.7634V19.0949V20.3941H97.2343H95.7053V19.0949V17.7957H95.0937H94.4821V20.8403ZM107.638 18.3243L107.645 18.8529L108.619 18.8596L109.594 18.8662V21.3751V23.884H110.256H110.919L110.925 21.3812L110.932 18.8784L111.9 18.8656L112.869 18.8529L112.876 18.3243L112.882 17.7957H110.257H107.631L107.638 18.3243ZM82.9761 18.828C83.2759 18.9112 83.4961 19.0391 83.7181 19.2592C83.9979 19.5365 84.1611 19.8722 84.1611 20.1703V20.267L82.4218 20.2605L80.6826 20.2539L80.6901 20.1648C80.7018 20.0282 80.7927 19.7601 80.8801 19.6044C81.0433 19.3139 81.4275 18.9994 81.77 18.876C82.0948 18.7588 82.6473 18.7369 82.9761 18.828ZM104.467 18.7902C104.85 18.8524 105.136 18.9959 105.405 19.2605C105.65 19.5023 105.782 19.742 105.833 20.0394C105.851 20.1434 105.861 20.2371 105.855 20.2476C105.841 20.2738 102.388 20.2719 102.372 20.2457C102.365 20.2342 102.375 20.1475 102.395 20.053C102.525 19.4341 103.056 18.9363 103.729 18.8022C103.938 18.7607 104.253 18.7555 104.467 18.7902ZM90.5283 18.8798C91.1756 19.0289 91.6705 19.4504 91.8935 20.0425C91.9812 20.2754 92.0143 20.4888 92.0129 20.8127C92.0114 21.1601 91.9514 21.4168 91.8011 21.7187C91.6597 22.0027 91.323 22.3491 91.0545 22.487C90.2277 22.9113 89.2541 22.786 88.644 22.1766C87.9916 21.525 87.9011 20.4035 88.438 19.6235C88.5622 19.4431 88.8747 19.1657 89.0668 19.0654C89.5103 18.8337 90.0377 18.7667 90.5283 18.8798ZM38.3433 26.5618C36.9564 26.7225 35.8159 27.7186 35.4734 29.0682C35.3786 29.4417 35.3631 29.805 35.3474 32.0102C35.3394 33.1381 35.3206 35.2105 35.3056 36.6155C35.2753 39.445 35.2727 39.3849 35.4359 39.6699C35.5271 39.8293 35.7276 40.0347 35.8779 40.1227C36.2857 40.3616 36.8213 40.3586 37.1881 40.1152C37.2851 40.0509 39.6889 37.6755 44.2452 33.1414L45.8043 31.5899L45.9072 31.3734C46.1429 30.8774 46.1422 30.3851 45.9052 29.8959C45.8118 29.7032 45.7621 29.6413 45.4537 29.334C43.8101 27.6963 41.6122 26.7181 39.2203 26.5594C38.7832 26.5304 38.6097 26.5309 38.3433 26.5618ZM9.4678 26.7715C9.26052 26.833 9.07517 26.9456 8.9199 27.1042C8.73968 27.2884 8.63741 27.4849 8.58237 27.7527C8.53028 28.0063 8.56445 28.2699 8.68114 28.515C8.75642 28.673 8.91121 28.8358 10.7323 30.6728C11.8156 31.7657 13.726 33.6879 14.9775 34.9446C17.46 37.437 17.346 37.3343 17.7756 37.4645C17.9206 37.5084 18.0281 37.5222 18.2215 37.5217C18.5329 37.5209 18.7296 37.4726 19.008 37.3284C19.1776 37.2405 19.2701 37.166 19.5154 36.9201C20.8289 35.603 21.7641 33.8499 22.1338 32.0116C22.2629 31.3693 22.356 30.382 22.3248 29.985C22.2566 29.1168 21.9319 28.3951 21.3441 27.8053C20.7336 27.1928 19.9639 26.862 19.0625 26.8249C18.8943 26.8179 17.3863 26.8011 15.7114 26.7874C14.0364 26.7737 11.9722 26.7569 11.1243 26.75C9.88345 26.7399 9.56011 26.7441 9.4678 26.7715ZM78.5419 28.5719C77.8986 28.6401 77.2509 28.9345 76.7746 29.3754C76.6733 29.4691 76.5867 29.5415 76.5822 29.5362C76.5776 29.5308 76.5408 29.3374 76.5003 29.1062L76.4267 28.6859L75.8342 28.679L75.2417 28.6722V33.1183V37.5644L75.9107 37.5576L76.5796 37.5508L76.5862 35.7326L76.5927 33.9143L76.7901 34.1026C77.3497 34.6365 78.067 34.9143 78.8859 34.9143C79.712 34.9143 80.3838 34.6619 80.9399 34.1428C81.4169 33.6975 81.741 33.0709 81.8559 32.3721C81.9106 32.0394 81.896 31.2376 81.8298 30.9403C81.6963 30.3411 81.4387 29.8513 81.0413 29.4416C80.7124 29.1024 80.4061 28.9003 79.975 28.7381C79.6036 28.5984 78.9774 28.5258 78.5419 28.5719ZM85.3588 28.6601C85.0891 28.7111 84.7486 28.8133 84.5536 28.9016C83.6012 29.3333 82.9359 30.1941 82.7715 31.2072C82.7231 31.5057 82.7233 32.0952 82.772 32.3742C82.848 32.8097 83.0267 33.2562 83.2695 33.6172C83.5089 33.9731 84.0012 34.3994 84.4125 34.6069C84.6729 34.7382 85.1417 34.8822 85.4608 34.9288C85.9902 35.0061 86.6564 34.9505 87.1427 34.7883C87.4139 34.6979 87.8078 34.495 88.0236 34.3345C88.5946 33.9099 88.9779 33.3331 89.175 32.602C89.2369 32.3721 89.2419 32.3144 89.2435 31.8064C89.245 31.2929 89.2409 31.2421 89.1768 30.9913C88.8796 29.8271 88.0767 29.0277 86.8943 28.7187C86.6153 28.6459 86.5591 28.6399 86.0724 28.6322C85.6971 28.6263 85.4961 28.6341 85.3588 28.6601ZM69.6387 28.6886C68.4806 28.8826 67.5815 29.7557 67.3007 30.959C67.2052 31.3686 67.1883 32.0085 67.2618 32.4374C67.3863 33.164 67.6794 33.7348 68.1625 34.1915C68.4915 34.5024 68.8157 34.693 69.253 34.8325C69.6077 34.9457 69.8515 34.9738 70.3444 34.9582C70.6929 34.9471 70.811 34.9331 71.0009 34.8801C71.5008 34.7408 71.9632 34.4873 72.3043 34.1656C72.4025 34.073 72.4901 33.9972 72.499 33.9972C72.5078 33.9972 72.515 34.1923 72.515 34.4307V34.8642L73.1839 34.8574L73.8529 34.8506V31.8064V28.7623L73.2766 28.7555C72.8345 28.7502 72.6946 28.7561 72.6758 28.7809C72.6623 28.7987 72.6201 28.9963 72.5819 29.2199C72.5437 29.4436 72.5097 29.6295 72.5062 29.6329C72.5028 29.6363 72.419 29.5613 72.32 29.4662C71.9073 29.0697 71.3424 28.7909 70.7385 28.6856C70.4691 28.6387 69.9278 28.6401 69.6387 28.6886ZM60.5801 28.7409C60.5707 28.7503 60.563 30.126 60.563 31.7979V34.8378H61.2511H61.9391V32.3286V29.8195H63.379H64.8188V32.3286V34.8378H65.507H66.1952L66.1887 31.7873L66.1822 28.7368L63.3897 28.7303C61.8538 28.7268 60.5895 28.7315 60.5801 28.7409ZM90.9653 30.6993C90.9653 32.3924 90.9596 32.7023 90.9254 32.8677C90.8249 33.3541 90.5866 33.6167 90.1689 33.7016L90.0097 33.7339L89.9937 33.9102C89.9849 34.0071 89.9763 34.2801 89.9746 34.5169L89.9714 34.9474L90.2326 34.932C90.5699 34.9122 90.8451 34.8409 91.1309 34.6992C91.5391 34.497 91.8081 34.2236 92.0095 33.8061C92.2691 33.2683 92.2905 33.0809 92.2905 31.3461V29.9468H93.3863H94.4821V32.431V34.9151L95.151 34.9083L95.82 34.9015V31.8192V28.7368L93.3926 28.7303L90.9653 28.7238V30.6993ZM97.0224 28.7406C97.0128 28.7502 97.005 30.1266 97.005 31.7992V34.8404L98.5404 34.832L100.076 34.8235L100.331 34.7543C101.191 34.5209 101.729 33.9849 101.887 33.2035C101.939 32.9487 101.926 32.3817 101.863 32.1503C101.803 31.9313 101.64 31.6144 101.497 31.4377C101.165 31.0265 100.619 30.7525 99.9529 30.6618C99.8433 30.6469 99.4105 30.6346 98.9912 30.6346H98.2288L98.2221 29.6857L98.2155 28.7368L97.6277 28.73C97.3044 28.7262 97.032 28.731 97.0224 28.7406ZM78.8723 29.8083C79.0819 29.8306 79.32 29.9074 79.5613 30.0304C79.8676 30.1867 80.1673 30.4959 80.3225 30.8155C80.5085 31.199 80.5769 31.6158 80.5197 32.0185C80.3701 33.0723 79.5335 33.7404 78.4331 33.6849C77.46 33.6358 76.7442 32.9644 76.6128 31.9775C76.5575 31.5624 76.6596 31.0707 76.8785 30.6983C77.01 30.4745 77.2938 30.1886 77.5086 30.0636C77.7244 29.9379 78.0758 29.822 78.3203 29.7958C78.5136 29.7751 78.5718 29.7764 78.8723 29.8083ZM86.4952 29.8957C86.6061 29.9237 86.7942 29.9942 86.9134 30.0523C87.2108 30.1976 87.5427 30.5265 87.6993 30.8311C88.0179 31.4506 87.9979 32.2514 87.6493 32.8438C87.5114 33.078 87.1907 33.3821 86.9516 33.5053C86.5958 33.6887 86.4211 33.7297 85.9959 33.7297C85.6798 33.7297 85.5988 33.721 85.4353 33.67C84.6862 33.4362 84.1964 32.8611 84.0824 32.0817C84.0208 31.661 84.0969 31.2117 84.295 30.8264C84.449 30.5268 84.7832 30.1966 85.0785 30.0523C85.393 29.8986 85.6156 29.848 85.9855 29.8463C86.2127 29.8453 86.3465 29.8583 86.4952 29.8957ZM71.1006 29.9335C71.1847 29.9565 71.351 30.023 71.4701 30.0811C71.6448 30.1664 71.7317 30.2315 71.919 30.4172C72.117 30.6134 72.1687 30.6831 72.2693 30.8894C72.4153 31.1888 72.4629 31.3669 72.4819 31.6845C72.54 32.653 71.9703 33.4525 71.0496 33.6944C70.7647 33.7693 70.2909 33.7688 70.0048 33.6933C69.447 33.5461 69.0215 33.2046 68.7805 32.7108C68.6258 32.3938 68.5818 32.1938 68.5813 31.8064C68.5809 31.4243 68.6237 31.231 68.7818 30.901C69.0244 30.3949 69.5047 30.031 70.094 29.907C70.3126 29.8609 70.8914 29.8762 71.1006 29.9335ZM28.517 30.7917C27.9283 30.8581 27.3428 31.0964 26.8671 31.4631C26.7193 31.577 23.8892 34.3311 21.3051 36.8756C20.8706 37.3035 20.3796 37.7852 20.214 37.9461C19.7469 38.4 19.6298 38.62 19.6309 39.0411C19.6324 39.5662 19.9408 40.0268 20.4176 40.2156L20.566 40.2744L22.6939 40.2913C23.8643 40.3006 26.5879 40.3113 28.7464 40.3151C33.1572 40.3229 32.8024 40.3377 33.2037 40.1293C33.5605 39.9441 33.865 39.5772 33.9905 39.1812C34.0425 39.0171 34.0469 38.9541 34.0459 38.3915C34.0431 36.926 33.7047 35.5511 33.0015 34.1484C32.5259 33.1998 31.7029 32.0968 31.0736 31.5649C30.3604 30.9619 29.4495 30.6864 28.517 30.7917ZM99.8558 31.8164C100.229 31.9126 100.521 32.124 100.645 32.3876C100.701 32.5067 100.713 32.5687 100.713 32.7368C100.713 32.9169 100.703 32.9615 100.628 33.1136C100.532 33.3085 100.373 33.454 100.143 33.5562C99.8647 33.68 99.7386 33.6964 98.9609 33.7099L98.2282 33.7226V32.7365V31.7503L98.9609 31.7625C99.5257 31.7718 99.7307 31.7842 99.8558 31.8164Z" fill="#29374A"/>
</g>
<defs>
<clipPath id="clip0_3111_1160">
<rect width="44.3478" height="40" fill="white" transform="translate(8.53467)"/>
</clipPath>
<clipPath id="clip1_3111_1160">
<rect width="56.5217" height="40" fill="white" transform="translate(56.3606)"/>
</clipPath>
</defs>
</svg>
